<svg width="21" height="20" viewBox="0 0 21 20" fill="none" xmlns="http://www.w3.org/2000/svg">
<path d="M18.3832 0.0825195H2.6181C1.28756 0.0825195 0.205078 1.165 0.205078 2.49554V13.7563C0.205078 15.0869 1.28756 16.1694 2.6181 16.1694H8.39485L9.78121 18.9421C9.9175 19.2146 10.196 19.3867 10.5007 19.3867C10.8053 19.3867 11.0838 19.2146 11.2201 18.9421L12.6065 16.1694H18.3832C19.7137 16.1694 20.7962 15.0869 20.7962 13.7563V2.49554C20.7962 1.165 19.7137 0.0825195 18.3832 0.0825195ZM19.1875 13.7563C19.1875 14.1998 18.8267 14.5607 18.3832 14.5607H12.1093C11.8047 14.5607 11.5262 14.7328 11.3899 15.0053L10.5007 16.7838L9.61141 15.0053C9.47512 14.7328 9.19665 14.5607 8.89197 14.5607H2.6181C2.17459 14.5607 1.81376 14.1998 1.81376 13.7563V2.49554C1.81376 2.05203 2.17459 1.6912 2.6181 1.6912H18.3832C18.8267 1.6912 19.1875 2.05203 19.1875 2.49554V13.7563Z" fill="white"/>
<path d="M5.6746 6.51725C5.23036 6.51725 4.87026 6.87736 4.87026 7.32159V12.1476C4.87026 12.5919 5.23036 12.952 5.6746 12.952C6.11884 12.952 6.47894 12.5919 6.47894 12.1476V7.32159C6.47894 6.87736 6.11884 6.51725 5.6746 6.51725Z" fill="white"/>
<path d="M5.6746 4.90857C6.11883 4.90857 6.47894 4.54845 6.47894 4.10423C6.47894 3.66 6.11883 3.29989 5.6746 3.29989C5.23038 3.29989 4.87026 3.66 4.87026 4.10423C4.87026 4.54845 5.23038 4.90857 5.6746 4.90857Z" fill="white"/>
<path d="M15.3267 4.10423H10.5007C10.0564 4.10423 9.69631 4.46433 9.69631 4.90857C9.69631 5.35281 10.0564 5.71291 10.5007 5.71291H15.3267C15.7709 5.71291 16.131 5.35281 16.131 4.90857C16.131 4.46433 15.7709 4.10423 15.3267 4.10423Z" fill="white"/>
<path d="M15.3267 7.32159H10.5007C10.0564 7.32159 9.69631 7.6817 9.69631 8.12594C9.69631 8.57017 10.0564 8.93028 10.5007 8.93028H15.3267C15.7709 8.93028 16.131 8.57017 16.131 8.12594C16.131 7.6817 15.7709 7.32159 15.3267 7.32159Z" fill="white"/>
<path d="M15.3267 10.539H10.5007C10.0564 10.539 9.69631 10.8991 9.69631 11.3433C9.69631 11.7875 10.0564 12.1476 10.5007 12.1476H15.3267C15.7709 12.1476 16.131 11.7875 16.131 11.3433C16.131 10.8991 15.7709 10.539 15.3267 10.539Z" fill="white"/>
</svg>
