<svg width="7" height="7" viewBox="0 0 7 7" fill="none" xmlns="http://www.w3.org/2000/svg">
<path d="M1.09176 5.70651C0.896497 5.90177 0.896497 6.21835 1.09176 6.41361C1.28702 6.60887 1.6036 6.60887 1.79887 6.41361L1.09176 5.70651ZM6.85834 1.14703C6.85834 0.870891 6.63448 0.647033 6.35834 0.647034L1.85834 0.647034C1.5822 0.647034 1.35834 0.870891 1.35834 1.14703C1.35834 1.42318 1.5822 1.64703 1.85834 1.64703L5.85834 1.64703L5.85834 5.64703C5.85834 5.92318 6.0822 6.14703 6.35834 6.14703C6.63448 6.14703 6.85834 5.92318 6.85834 5.64703L6.85834 1.14703ZM1.79887 6.41361L6.71189 1.50059L6.00478 0.79348L1.09176 5.70651L1.79887 6.41361Z" fill="#64668F"/>
</svg>
