<svg width="13" height="12" viewBox="0 0 13 12" fill="none" xmlns="http://www.w3.org/2000/svg">
<path d="M11.7578 7.20935C12.172 7.20935 12.5078 6.87356 12.5078 6.45935C12.5078 6.04514 12.172 5.70935 11.7578 5.70935L11.7578 7.20935ZM0.622502 5.92902C0.329609 6.22191 0.329609 6.69679 0.622502 6.98968L5.39547 11.7627C5.68837 12.0555 6.16324 12.0555 6.45613 11.7627C6.74903 11.4698 6.74903 10.9949 6.45613 10.702L2.21349 6.45935L6.45613 2.21671C6.74903 1.92382 6.74903 1.44894 6.45613 1.15605C6.16324 0.863157 5.68837 0.863157 5.39547 1.15605L0.622502 5.92902ZM11.7578 5.70935L1.15283 5.70935L1.15283 7.20935L11.7578 7.20935L11.7578 5.70935Z" />
</svg>
