<svg width="14" height="17" viewBox="0 0 14 17" fill="none" xmlns="http://www.w3.org/2000/svg">
<path d="M6.91736 0.513672C4.22408 0.513672 2.04074 2.69701 2.04074 5.3903V6.51252C2.04074 7.04295 1.83002 7.55166 1.45495 7.92673L0.49408 8.8876C0.235408 9.14628 0.0900879 9.49711 0.0900879 9.86293C0.0900879 10.6247 0.707629 11.2422 1.46941 11.2422H12.3653C13.1271 11.2422 13.7446 10.6247 13.7446 9.86293C13.7446 9.49711 13.5993 9.14628 13.3406 8.8876L12.3798 7.92673C12.0047 7.55166 11.794 7.04295 11.794 6.51252V5.3903C11.794 2.69701 9.61062 0.513672 6.91736 0.513672Z"/>
<path d="M5.99139 13.1929C4.88682 13.1929 3.95052 14.1847 4.64857 15.0407C5.1851 15.6987 6.00216 16.1189 6.91736 16.1189C7.83256 16.1189 8.64962 15.6987 9.18616 15.0407C9.8842 14.1847 8.94791 13.1929 7.84334 13.1929H5.99139Z" />
</svg>
