<svg width="20" height="18" viewBox="0 0 20 18" fill="none" xmlns="http://www.w3.org/2000/svg">
<path d="M18.2373 4.40445H17.5995V1.91774C17.5995 0.996646 16.8499 0.24707 15.9288 0.24707H2.57009C1.64899 0.24707 0.899414 0.996646 0.899414 1.91774V11.419C0.899414 12.3405 1.64899 13.0897 2.57009 13.0897H3.20791V15.5764C3.20791 16.4975 3.95749 17.2471 4.87859 17.2471H18.2373C19.1584 17.2471 19.908 16.4975 19.908 15.5764C19.908 15.3086 19.908 6.34299 19.908 6.07512C19.908 5.15365 19.1584 4.40445 18.2373 4.40445ZM2.57009 11.9759C2.26305 11.9759 2.0132 11.7261 2.0132 11.419V1.91774C2.0132 1.61071 2.26305 1.36085 2.57009 1.36085H15.9288C16.2358 1.36085 16.4857 1.61071 16.4857 1.91774V11.419C16.4857 11.7261 16.2358 11.9759 15.9288 11.9759C15.5698 11.9759 2.92869 11.9759 2.57009 11.9759ZM18.7942 15.5764C18.7942 15.8835 18.5443 16.1333 18.2373 16.1333H4.87859C4.57155 16.1333 4.3217 15.8835 4.3217 15.5764V13.0897H15.9288C16.8079 13.0897 17.5995 12.3955 17.5995 11.3826H18.7942V15.5764ZM18.7942 10.2688H17.5995V8.46055H18.7942V10.2688ZM18.7942 7.34676H17.5995V5.51823H18.2373C18.5443 5.51823 18.7942 5.76809 18.7942 6.07512V7.34676Z" fill="white"/>
<path d="M7.94416 4.64874L6.57688 3.28146C6.18895 2.89349 5.5577 2.89345 5.16977 3.28146L3.80252 4.64874C3.4137 5.03756 3.41359 5.66699 3.80252 6.05585L5.1698 7.42317C5.55773 7.81103 6.18895 7.81106 6.57688 7.42313L7.94412 6.05585C8.33306 5.66707 8.33309 5.03767 7.94416 4.64874ZM5.87334 6.5516L4.6741 5.35231L5.87334 4.15303L7.07263 5.35228L5.87334 6.5516Z" fill="white"/>
<path d="M4.75886 9.2331H4.06801C3.76046 9.2331 3.51112 9.48244 3.51112 9.78999C3.51112 10.0975 3.76046 10.3469 4.06801 10.3469H4.75886C5.06641 10.3469 5.31575 10.0975 5.31575 9.78999C5.31575 9.48244 5.06641 9.2331 4.75886 9.2331Z" fill="white"/>
<path d="M7.98285 9.2331H7.292C6.98445 9.2331 6.73511 9.48244 6.73511 9.78999C6.73511 10.0975 6.98445 10.3469 7.292 10.3469H7.98285C8.2904 10.3469 8.53974 10.0975 8.53974 9.78999C8.53974 9.48244 8.2904 9.2331 7.98285 9.2331Z" fill="white"/>
<path d="M11.2069 9.2331H10.516C10.2085 9.2331 9.95914 9.48244 9.95914 9.78999C9.95914 10.0975 10.2085 10.3469 10.516 10.3469H11.2069C11.5144 10.3469 11.7638 10.0975 11.7638 9.78999C11.7638 9.48244 11.5144 9.2331 11.2069 9.2331Z" fill="white"/>
<path d="M14.4309 9.2331H13.74C13.4325 9.2331 13.1831 9.48244 13.1831 9.78999C13.1831 10.0975 13.4325 10.3469 13.74 10.3469H14.4309C14.7384 10.3469 14.9878 10.0975 14.9878 9.78999C14.9878 9.48244 14.7384 9.2331 14.4309 9.2331Z" fill="white"/>
<path d="M14.4309 2.67679H10.4037C10.0961 2.67679 9.8468 2.92613 9.8468 3.23368C9.8468 3.54123 10.0961 3.79057 10.4037 3.79057H14.4309C14.7384 3.79057 14.9878 3.54123 14.9878 3.23368C14.9878 2.92613 14.7384 2.67679 14.4309 2.67679Z" fill="white"/>
<path d="M14.4309 4.94786H10.4037C10.0961 4.94786 9.8468 5.1972 9.8468 5.50475C9.8468 5.81231 10.0961 6.06165 10.4037 6.06165H14.4309C14.7384 6.06165 14.9878 5.81231 14.9878 5.50475C14.9878 5.1972 14.7384 4.94786 14.4309 4.94786Z" fill="white"/>
</svg>
