<svg width="16" height="17" viewBox="0 0 16 17" fill="none" xmlns="http://www.w3.org/2000/svg">
<path d="M2.73091 0.841797C1.47603 0.841797 0.445342 1.87994 0.445342 3.13482V5.42042C0.445342 6.67535 1.47601 7.71195 2.73094 7.71195H5.01654C6.27145 7.71195 7.30956 6.67532 7.30956 5.42042V3.13482C7.30953 1.87994 6.27142 0.841797 5.01651 0.841797H2.73091ZM11.1208 0.841797C9.86594 0.841797 8.83524 1.87994 8.83524 3.13482V5.42042C8.83524 6.67535 9.8659 7.71195 11.1208 7.71195H13.4139C14.6688 7.71195 15.6995 6.67532 15.6995 5.42042V3.13482C15.6995 1.87991 14.6688 0.841797 13.4139 0.841797H11.1208ZM2.73091 9.23915C1.47601 9.23915 0.445312 10.2698 0.445312 11.5247V13.8118C0.445312 15.0667 1.47598 16.1034 2.73091 16.1034H5.01651C6.27142 16.1034 7.30953 15.0667 7.30953 13.8118V11.5247C7.30953 10.2698 6.27142 9.23915 5.01651 9.23915H2.73091ZM11.1208 9.23915C9.86594 9.23915 8.83524 10.2698 8.83524 11.5247V13.8118C8.83524 15.0667 9.8659 16.1034 11.1208 16.1034H13.4139C14.6688 16.1034 15.6995 15.0667 15.6995 13.8118V11.5247C15.6995 10.2698 14.6688 9.23915 13.4139 9.23915H11.1208Z" fill="#D30D44"/>
</svg>
