<svg width="13" height="12" viewBox="0 0 13 12" fill="none" xmlns="http://www.w3.org/2000/svg">
<path d="M1.92699 0.019043C0.979798 0.019043 0.196289 0.802552 0.196289 1.74974V3.60774H12.1582V1.74974C12.1582 0.802552 11.3747 0.019043 10.4275 0.019043H1.92699ZM8.16779 1.21607H9.76536C10.0956 1.21736 10.3622 1.48609 10.3609 1.81631C10.3597 2.1447 10.0938 2.4106 9.76536 2.41189H8.16779C7.83939 2.4106 7.57349 2.1447 7.5722 1.81631C7.57091 1.48609 7.83757 1.21736 8.16779 1.21607ZM0.196289 4.80359V10.2503C0.196289 11.1974 0.979798 11.981 1.92699 11.981H10.4275C11.3747 11.981 12.1582 11.1974 12.1582 10.2503V4.80359H0.196289ZM6.17666 6.19911C6.50688 6.2004 6.77353 6.46912 6.77224 6.79934V9.58808C6.7716 9.91693 6.5055 10.1836 6.17666 10.1848C5.84644 10.1861 5.57771 9.91948 5.57639 9.58926C5.57639 9.58887 5.57639 9.58847 5.57639 9.58808V6.79934C5.5751 6.46912 5.84176 6.2004 6.17198 6.19908C6.17355 6.19911 6.17512 6.19911 6.17666 6.19911ZM3.78499 7.39496C4.11521 7.39367 4.38396 7.66032 4.38525 7.99054V9.58811C4.38461 9.91833 4.11638 10.1855 3.78616 10.1849C3.78577 10.1849 3.78538 10.1849 3.78499 10.1849C3.45614 10.1836 3.19005 9.91698 3.1894 9.58811V7.99522C3.18811 7.665 3.45477 7.39625 3.78499 7.39496ZM8.56951 7.39496C8.89973 7.39625 9.16638 7.66497 9.16509 7.99519V9.58808C9.16445 9.91693 8.89835 10.1836 8.56951 10.1848C8.23929 10.1861 7.97056 9.91948 7.96924 9.58926C7.96924 9.58887 7.96924 9.58847 7.96924 9.58808V7.99522C7.96795 7.665 8.2346 7.39627 8.56483 7.39496H8.56951Z" />
</svg>
