<svg width="21" height="20" viewBox="0 0 21 20" fill="none" xmlns="http://www.w3.org/2000/svg">
<path d="M10.3691 14.605C12.9124 14.605 14.9741 12.5432 14.9741 9.99992C14.9741 7.4566 12.9124 5.39484 10.3691 5.39484C7.82574 5.39484 5.76398 7.4566 5.76398 9.99992C5.76398 12.5432 7.82574 14.605 10.3691 14.605Z" />
<path d="M19.9214 13.3731C18.9604 12.5156 18.4093 11.2863 18.4093 9.99992C18.4093 8.71354 18.9604 7.48425 19.9214 6.62679C20.0455 6.51604 20.1121 6.36 20.1121 6.20092C20.1121 6.12746 20.098 6.05325 20.0687 5.98246C19.9758 5.75791 19.7509 5.6171 19.5088 5.6308C18.2228 5.70387 16.9639 5.22433 16.0546 4.31435C15.1447 3.40513 14.6651 2.14616 14.7382 0.860158C14.7519 0.617725 14.6111 0.393179 14.3865 0.300316C14.1624 0.207453 13.9039 0.266444 13.7422 0.447603C12.8847 1.40858 11.6554 1.95967 10.3691 1.95967C9.08268 1.95967 7.85339 1.40858 6.99593 0.447603C6.83418 0.266444 6.57577 0.207453 6.3516 0.300316C6.12706 0.393179 5.98624 0.617725 5.99994 0.860158C6.07301 2.14616 5.59347 3.40513 4.68349 4.31435C3.77427 5.22433 2.5153 5.70387 1.2293 5.6308C0.987246 5.6171 0.76232 5.75791 0.669457 5.98246C0.576594 6.20662 0.635585 6.46504 0.816744 6.62679C1.77772 7.48425 2.32881 8.71354 2.32881 9.99992C2.32881 11.2863 1.77772 12.5156 0.816744 13.3731C0.635585 13.5348 0.576594 13.7932 0.669457 14.0174C0.76232 14.2419 0.987626 14.3827 1.2293 14.369C2.5153 14.296 3.77427 14.7755 4.68349 15.6855C5.59347 16.5947 6.07301 17.8537 5.99994 19.1397C5.98624 19.3821 6.12706 19.6067 6.3516 19.6995C6.57577 19.7924 6.83418 19.7334 6.99593 19.5522C7.85339 18.5913 9.08268 18.0402 10.3691 18.0402C11.6554 18.0402 12.8847 18.5913 13.7422 19.5522C13.9044 19.7344 14.1649 19.7917 14.3865 19.6995C14.6111 19.6067 14.7519 19.3821 14.7382 19.1397C14.6651 17.8537 15.1447 16.5947 16.0546 15.6855C16.9639 14.7755 18.2228 14.2956 19.5088 14.369C19.7509 14.3831 19.9758 14.2415 20.0687 14.0174C20.098 13.9466 20.1121 13.8724 20.1121 13.7989C20.1121 13.6398 20.0455 13.4838 19.9214 13.3731ZM10.3691 15.7468C7.20031 15.7468 4.62222 13.1687 4.62222 9.99992C4.62222 6.83117 7.20031 4.25308 10.3691 4.25308C13.5378 4.25308 16.1159 6.83117 16.1159 9.99992C16.1159 13.1687 13.5378 15.7468 10.3691 15.7468Z" />
</svg>
