<svg width="3" height="11" viewBox="0 0 3 11" fill="none" xmlns="http://www.w3.org/2000/svg">
<path d="M0.558047 0.13916H2.64305L2.46305 7.24916H0.738047L0.558047 0.13916ZM0.498047 9.22916C0.498047 8.92916 0.603047 8.67416 0.813047 8.46416C1.03305 8.24416 1.29805 8.13416 1.60805 8.13416C1.90805 8.13416 2.16305 8.24416 2.37305 8.46416C2.59305 8.67416 2.70305 8.92916 2.70305 9.22916C2.70305 9.53916 2.59305 9.80416 2.37305 10.0242C2.16305 10.2342 1.90805 10.3392 1.60805 10.3392C1.29805 10.3392 1.03305 10.2342 0.813047 10.0242C0.603047 9.80416 0.498047 9.53916 0.498047 9.22916Z" fill="white"/>
</svg>
