<svg width="14" height="13" viewBox="0 0 14 13" fill="none" xmlns="http://www.w3.org/2000/svg">
<path d="M6.99963 0.159668C3.67868 0.159668 0.953369 2.88497 0.953369 6.20593C0.953369 9.52689 3.67868 12.2522 6.99963 12.2522C10.3206 12.2522 13.0459 9.52689 13.0459 6.20593C13.0459 2.88497 10.3206 0.159668 6.99963 0.159668ZM7.70818 9.04012C7.70818 9.43072 7.39023 9.74867 6.99963 9.74867C6.60904 9.74867 6.29109 9.43072 6.29109 9.04012V5.49739C6.29109 5.10679 6.60904 4.78884 6.99963 4.78884C7.39023 4.78884 7.70818 5.10679 7.70818 5.49739V9.04012ZM6.99963 4.08029C6.60904 4.08029 6.29109 3.76234 6.29109 3.37175C6.29109 2.98115 6.60904 2.6632 6.99963 2.6632C7.39023 2.6632 7.70818 2.98115 7.70818 3.37175C7.70818 3.76234 7.39023 4.08029 6.99963 4.08029Z" fill="#D30D44"/>
</svg>
