<svg width="17" height="17" viewBox="0 0 17 17" fill="none" xmlns="http://www.w3.org/2000/svg">
<path d="M11.7344 1.57686C12.7178 1.57686 13.6609 1.96752 14.3563 2.66289C15.0516 3.35827 15.4423 4.3014 15.4423 5.28481V11.6894C15.4423 12.6728 15.0516 13.616 14.3563 14.3114C13.6609 15.0067 12.7178 15.3974 11.7344 15.3974H5.32973C4.34632 15.3974 3.40319 15.0067 2.70781 14.3114C2.01244 13.616 1.62178 12.6728 1.62178 11.6894V5.28481C1.62178 4.3014 2.01244 3.35827 2.70781 2.66289C3.40319 1.96752 4.34632 1.57686 5.32973 1.57686H11.7344ZM11.7344 0.228516H5.32973C3.98995 0.232517 2.70618 0.766517 1.75881 1.71389C0.811438 2.66126 0.277439 3.94502 0.273438 5.28481V11.6894C0.277439 13.0292 0.811438 14.313 1.75881 15.2604C2.70618 16.2077 3.98995 16.7417 5.32973 16.7457H11.7344C13.0741 16.7417 14.3579 16.2077 15.3053 15.2604C16.2526 14.313 16.7866 13.0292 16.7906 11.6894V5.28481C16.7866 3.94502 16.2526 2.66126 15.3053 1.71389C14.3579 0.766517 13.0741 0.232517 11.7344 0.228516Z"/>
<path d="M12.9378 3.09375C12.7467 3.09375 12.56 3.15039 12.4012 3.2565C12.2424 3.36262 12.1186 3.51345 12.0455 3.68992C11.9724 3.86639 11.9533 4.06057 11.9906 4.24791C12.0278 4.43524 12.1198 4.60732 12.2549 4.74239C12.3899 4.87745 12.562 4.96943 12.7493 5.00669C12.9367 5.04396 13.1309 5.02483 13.3073 4.95174C13.4838 4.87864 13.6346 4.75486 13.7407 4.59604C13.8469 4.43722 13.9035 4.2505 13.9035 4.0595C13.9035 3.93267 13.8785 3.80709 13.83 3.68992C13.7815 3.57275 13.7103 3.46629 13.6206 3.37661C13.531 3.28693 13.4245 3.21579 13.3073 3.16726C13.1902 3.11873 13.0646 3.09375 12.9378 3.09375Z" />
<path d="M8.57755 5.53256C9.16705 5.53223 9.7434 5.70675 10.2337 6.03405C10.724 6.36136 11.1062 6.82673 11.3319 7.37129C11.5577 7.91585 11.6168 8.51514 11.5019 9.09333C11.387 9.67152 11.1031 10.2026 10.6863 10.6195C10.2695 11.0363 9.73835 11.3201 9.16016 11.4351C8.58197 11.55 7.98269 11.4908 7.43812 11.2651C6.89356 11.0393 6.42819 10.6572 6.10089 10.1669C5.77359 9.67657 5.59906 9.10022 5.5994 8.51072C5.60073 7.72127 5.91493 6.96454 6.47315 6.40632C7.03138 5.8481 7.7881 5.5339 8.57755 5.53256ZM8.57755 4.18422C7.7218 4.18589 6.88576 4.44119 6.17507 4.91786C5.46437 5.39453 4.91093 6.07118 4.58468 6.8623C4.25843 7.65341 4.17402 8.52349 4.34211 9.36256C4.5102 10.2016 4.92325 10.9721 5.52906 11.5765C6.13487 12.1809 6.90625 12.5921 7.74572 12.7582C8.58518 12.9244 9.45506 12.8379 10.2454 12.5098C11.0358 12.1817 11.7111 11.6267 12.1861 10.9149C12.6611 10.2031 12.9145 9.36646 12.9142 8.51072C12.9139 7.94176 12.8015 7.37844 12.5834 6.85296C12.3653 6.32749 12.0457 5.85018 11.6429 5.44834C11.2401 5.0465 10.7621 4.72801 10.2361 4.5111C9.71009 4.29419 9.1465 4.18311 8.57755 4.18422Z" />
</svg>
