<svg width="14" height="16" viewBox="0 0 14 16" fill="none" xmlns="http://www.w3.org/2000/svg">
<path d="M2.21352 12.718C1.21668 12.5936 0.445312 11.7433 0.445312 10.7128V2.12433C0.445312 1.00827 1.35006 0.103516 2.46612 0.103516H8.52856C9.55907 0.103516 10.4094 0.874882 10.5337 1.87173H4.99214C3.45756 1.87173 2.21352 3.11576 2.21352 4.65034V12.718Z" fill="#D30D44"/>
<path fill-rule="evenodd" clip-rule="evenodd" d="M2.97133 13.2388C2.97133 14.3549 3.87607 15.2596 4.99214 15.2596H11.0546C12.1706 15.2596 13.0754 14.3549 13.0754 13.2388V4.65034C13.0754 3.53427 12.1706 2.62953 11.0546 2.62953H4.99214C3.87607 2.62953 2.97133 3.53427 2.97133 4.65034V13.2388ZM5.17169 9.98036C5.05784 9.88435 4.99214 9.74304 4.99214 9.59411V8.95432C4.99214 8.56544 5.20582 8.20164 5.55718 8.0209L6.88665 7.33719V6.56289C6.88665 5.93866 7.38226 5.40815 8.02336 5.40815C8.66446 5.40815 9.16006 5.93866 9.16006 6.56289V7.33719L10.4313 7.991C10.8184 8.19005 11.0546 8.59133 11.0546 9.02123V9.59411C11.0546 9.74302 10.9889 9.88435 10.875 9.98036C10.7612 10.0763 10.6108 10.1172 10.464 10.0921L9.16006 9.86851V10.2721L9.87912 11.1042C9.95844 11.196 10.0021 11.3132 10.0021 11.4345V11.9758C10.0021 12.1423 9.91999 12.2982 9.78268 12.3924C9.64536 12.4866 9.47044 12.5071 9.31506 12.4471L8.56082 12.1562H7.4859L6.73166 12.4471C6.57628 12.5071 6.40135 12.4866 6.26404 12.3924C6.12672 12.2982 6.04465 12.1423 6.04465 11.9758V11.4345C6.04465 11.3132 6.08828 11.196 6.1676 11.1042L6.88665 10.2721V9.86851L5.5827 10.0921C5.43594 10.1172 5.28554 10.0763 5.17169 9.98036Z" fill="#D30D44"/>
<path d="M4.69797 4.46306H11.3339V13.8095H4.69797V4.46306Z" fill="#D30D44"/>
</svg>
