<svg width="354" height="37" viewBox="0 0 354 37" fill="none" xmlns="http://www.w3.org/2000/svg">
<path fill-rule="evenodd" clip-rule="evenodd" d="M344.127 21.3259C343.789 21.6984 343.772 22.2608 344.085 22.6541L353.371 34.3155C353.907 34.9877 353.428 35.9808 352.569 35.9808H345.575C345.264 35.9808 344.97 35.8394 344.775 35.5965L339.129 28.5556C338.735 28.0642 337.996 28.0405 337.571 28.5056L336.739 29.4165C336.567 29.6056 336.471 29.8523 336.471 30.1083V34.9547C336.471 35.5214 336.012 35.9808 335.445 35.9808H330.182C329.616 35.9808 329.156 35.5214 329.156 34.9547V1.17598C329.156 0.609292 329.616 0.149902 330.182 0.149902H335.445C336.012 0.149902 336.471 0.60929 336.471 1.17597V16.9506C336.471 17.8982 337.646 18.3393 338.27 17.626L345.008 9.91903C345.203 9.6962 345.485 9.56836 345.781 9.56836H352.468C353.358 9.56836 353.826 10.624 353.229 11.2835L344.127 21.3259ZM315.238 29.4738C316.402 29.4738 317.461 29.1863 318.415 28.6104C319.055 28.2246 319.6 27.7501 320.05 27.1867C320.417 26.7291 321.065 26.5484 321.564 26.8551L326.095 29.6376C326.571 29.9302 326.729 30.5533 326.41 31.0124C325.293 32.6198 323.856 33.9117 322.102 34.8884C320.048 36.0312 317.76 36.6028 315.238 36.6028C311.341 36.6028 308.087 35.312 305.476 32.7299C302.864 30.1483 301.559 26.9415 301.559 23.1095C301.559 19.2779 302.864 16.0711 305.476 13.4891C308.087 10.9074 311.341 9.61624 315.238 9.61624C317.76 9.61624 320.048 10.1878 322.102 11.3306C323.854 12.3064 325.289 13.5907 326.406 15.1834C326.727 15.6414 326.571 16.2655 326.095 16.5596L321.565 19.3598C321.065 19.6685 320.416 19.4884 320.049 19.0301C319.598 18.4679 319.054 17.9941 318.415 17.6086C317.461 17.0332 316.402 16.7452 315.238 16.7452C313.459 16.7452 311.979 17.3539 310.799 18.5706C309.619 19.7879 309.029 21.3007 309.029 23.1095C309.029 24.9188 309.619 26.4316 310.799 27.6484C311.979 28.8656 313.459 29.4738 315.238 29.4738ZM291.29 35.6768C291.29 34.846 290.232 34.3977 289.542 34.8604C287.851 35.9948 285.882 36.562 283.638 36.562C280.166 36.562 277.264 35.2731 274.932 32.695C272.599 30.1173 271.294 26.8575 271.294 22.9922C271.294 19.1273 272.599 16.0613 274.932 13.4832C277.264 10.9054 280.166 9.61624 283.638 9.61624C285.825 9.61624 287.75 10.1549 289.413 11.2324C290.157 11.7148 291.29 11.2333 291.29 10.3462C291.29 9.80231 291.731 9.36139 292.275 9.36139H297.505C298.072 9.36139 298.531 9.82077 298.531 10.3875V35.5731C298.531 36.1398 298.072 36.5992 297.505 36.5992H292.213C291.703 36.5992 291.29 36.1862 291.29 35.6768ZM289.523 18.5571C288.344 17.3421 286.867 16.7344 285.091 16.7344C283.331 16.7344 281.866 17.3421 280.695 18.5571C279.525 19.7724 278.94 21.2829 278.94 23.0892C278.94 24.8956 279.525 26.4061 280.695 27.6211C281.866 28.8365 283.331 29.4438 285.091 29.4438C286.867 29.4438 288.344 28.8365 289.523 27.6211C290.701 26.4061 291.29 24.8956 291.29 23.0892C291.29 21.2829 290.701 19.7724 289.523 18.5571ZM264.83 36.6028C261.829 36.6028 259.582 35.786 258.09 34.1519C256.598 32.5182 255.851 30.3076 255.851 27.5208V1.21176C255.851 0.645081 256.311 0.185693 256.878 0.185693H262.14C262.707 0.185693 263.167 0.645081 263.167 1.21176V8.97756C263.167 9.54425 263.626 10.0036 264.193 10.0036H268.697C269.264 10.0036 269.723 10.463 269.723 11.0297V15.7456C269.723 16.3123 269.264 16.7716 268.697 16.7716H264.193C263.626 16.7716 263.167 17.231 263.167 17.7977V26.3015C263.167 28.3753 264.235 29.4119 266.371 29.4119C266.95 29.4119 267.546 29.3204 268.16 29.1373C268.898 28.9167 269.723 29.4145 269.723 30.1854V34.8569C269.723 35.2414 269.51 35.5979 269.157 35.7512C267.851 36.319 266.409 36.6028 264.83 36.6028ZM246.781 35.2468C244.71 36.1506 242.476 36.6575 239.916 36.6575C239.79 36.6575 239.464 36.6575 239.464 36.6575C239.464 36.6575 239.038 36.6575 238.821 36.6575H222.227C220.285 36.6575 218.71 35.0559 218.71 33.0802C218.71 31.1046 220.285 29.503 222.227 29.503H238.821C239.027 29.503 239.435 29.503 239.435 29.503C239.435 29.503 239.796 29.503 239.916 29.503C241.514 29.503 242.74 29.2377 243.858 28.5907C244.975 27.9438 245.534 27.1144 245.534 26.1025C245.534 25.7043 245.456 25.3436 245.301 25.0201C245.146 24.6967 244.885 24.4023 244.518 24.1368C244.151 23.8716 243.801 23.6434 243.466 23.4525C243.132 23.262 242.638 23.0629 241.986 22.8553C241.334 22.6481 240.808 22.4906 240.408 22.3826C240.008 22.2748 239.401 22.1213 238.586 21.9223C230.528 19.9484 226.5 16.2079 226.5 10.7003C226.5 7.54886 227.723 5.01083 230.17 3.08633C232.616 1.16226 235.837 0.19996 239.833 0.19996C242.394 0.19996 244.739 0.598136 246.867 1.39438C248.687 2.07538 250.218 2.93836 251.46 3.98337C251.826 4.29085 251.892 4.81932 251.645 5.22858L249.11 9.44486C248.77 10.0106 247.99 10.1112 247.459 9.72019C246.631 9.11152 245.663 8.59225 244.555 8.1624C242.973 7.54886 241.383 7.24166 239.784 7.24166C238.235 7.24166 236.963 7.53635 235.968 8.12507C234.973 8.71401 234.476 9.47293 234.476 10.4017C234.476 10.9492 234.647 11.4468 234.989 11.8947C235.332 12.3425 235.825 12.7244 236.469 13.0393C237.114 13.3546 237.774 13.6201 238.451 13.8356C239.128 14.0512 239.907 14.2504 240.788 14.4327C241.391 14.5656 241.953 14.7025 242.476 14.8432C242.997 14.9844 243.715 15.2165 244.628 15.5399C245.542 15.8634 246.365 16.2118 247.099 16.585C247.833 16.9583 248.616 17.4478 249.448 18.053C250.28 18.6588 250.977 19.3139 251.54 20.0188C252.103 20.724 252.571 21.57 252.947 22.5568C253.322 23.5439 253.509 24.6013 253.509 25.7293C253.509 27.836 252.906 29.7229 251.699 31.3899C250.492 33.0571 248.852 34.3428 246.781 35.2468ZM210.745 17.2639H203.047C202.879 17.2639 202.713 17.2527 202.551 17.2309C202.499 17.2239 202.446 17.2195 202.393 17.2195H201.825C199.623 17.2195 197.923 17.8167 196.724 19.011C195.525 20.2054 194.926 21.8227 194.926 23.8631V35.6076C194.926 36.1743 194.466 36.6337 193.9 36.6337H188.637C188.07 36.6337 187.611 36.1743 187.611 35.6076V10.5944C187.611 10.0278 188.07 9.56836 188.637 9.56836H194.023C194.521 9.56836 194.926 9.97267 194.926 10.4714C194.926 11.313 196.036 11.7454 196.713 11.2452C198.215 10.1355 199.919 9.58066 201.825 9.58066H202.908C202.918 9.58066 202.926 9.58881 202.926 9.59886C202.926 9.60914 202.934 9.61738 202.945 9.61708C202.978 9.6161 203.012 9.61548 203.047 9.61548H210.745C212.822 9.61548 214.505 11.3276 214.505 13.4397C214.505 15.5517 212.822 17.2639 210.745 17.2639ZM178.265 34.8368C176.177 36.0139 173.845 36.6028 171.271 36.6028C167.369 36.6028 164.111 35.3104 161.496 32.725C158.882 30.1402 157.575 26.9293 157.575 23.0925C157.575 19.256 158.882 16.0452 161.496 13.4599C164.111 10.8751 167.369 9.58218 171.271 9.58218C173.845 9.58218 176.177 10.1711 178.265 11.3481C180.354 12.5256 181.988 14.1477 183.17 16.2138C184.352 18.2805 184.943 20.5732 184.943 23.0925C184.943 25.6118 184.352 27.9049 183.17 29.9711C181.988 32.0377 180.354 33.6598 178.265 34.8368ZM175.715 18.5479C174.533 17.3296 173.052 16.7202 171.271 16.7202C169.49 16.7202 168.009 17.3296 166.827 18.5479C165.645 19.7666 165.054 21.2814 165.054 23.0925C165.054 24.9041 165.645 26.4188 166.827 27.6371C168.009 28.8558 169.49 29.4649 171.271 29.4649C173.052 29.4649 174.533 28.8558 175.715 27.6371C176.897 26.4188 177.488 24.9041 177.488 23.0925C177.488 21.2814 176.897 19.7666 175.715 18.5479ZM152.009 36.6028C149.008 36.6028 146.762 35.786 145.269 34.1519C143.777 32.5182 143.031 30.3076 143.031 27.5208V1.21178C143.031 0.645092 143.49 0.185704 144.057 0.185704H149.32C149.886 0.185704 150.346 0.645092 150.346 1.21178V8.97758C150.346 9.54426 150.805 10.0036 151.372 10.0036H155.876C156.443 10.0036 156.902 10.463 156.902 11.0297V15.7456C156.902 16.3123 156.443 16.7717 155.876 16.7717H151.372C150.805 16.7717 150.346 17.231 150.346 17.7977V26.3016C150.346 28.3754 151.414 29.4119 153.551 29.4119C154.13 29.4119 154.726 29.3204 155.339 29.1373C156.077 28.9167 156.902 29.4145 156.902 30.1854V34.8569C156.902 35.2414 156.689 35.5979 156.337 35.7512C155.031 36.319 153.588 36.6028 152.009 36.6028ZM127.211 29.4649C128.377 29.4649 129.437 29.1769 130.393 28.6004C131.033 28.2138 131.58 27.7383 132.031 27.1737C132.397 26.716 133.045 26.5354 133.544 26.8421L138.083 29.6295C138.559 29.9221 138.717 30.5452 138.398 31.0043C137.279 32.6142 135.841 33.9081 134.084 34.8862C132.028 36.0305 129.737 36.6028 127.211 36.6028C123.31 36.6028 120.051 35.3104 117.437 32.725C114.822 30.1402 113.515 26.9293 113.515 23.0925C113.515 19.256 114.822 16.0452 117.437 13.4599C120.051 10.8751 123.31 9.58218 127.211 9.58218C129.737 9.58218 132.028 10.1546 134.084 11.2988C135.839 12.2761 137.276 13.5623 138.394 15.1575C138.716 15.6155 138.56 16.2396 138.084 16.5337L133.545 19.3388C133.046 19.6475 132.396 19.4675 132.029 19.0091C131.578 18.4457 131.033 17.9709 130.393 17.5847C129.437 17.0085 128.377 16.7202 127.211 16.7202C125.43 16.7202 123.949 17.3296 122.767 18.5479C121.585 19.7666 120.995 21.2814 120.995 23.0925C120.995 24.9041 121.585 26.4188 122.767 27.6371C123.949 28.8558 125.43 29.4649 127.211 29.4649ZM94.7396 25.4862C94.0462 25.4862 93.5512 26.165 93.883 26.7739C94.3466 27.6245 94.9733 28.33 95.7631 28.8903C96.9216 29.7129 98.3003 30.1237 99.8997 30.1237C101.27 30.1237 102.519 29.8524 103.645 29.3097C104.393 28.9491 105.036 28.5269 105.576 28.0429C106.011 27.6518 106.682 27.584 107.123 27.9689L110.457 30.8775C110.885 31.251 110.93 31.9043 110.526 32.303C109.283 33.5271 107.83 34.5069 106.166 35.2423C104.175 36.1219 102.021 36.562 99.7039 36.562C95.6407 36.562 92.2506 35.2588 89.5337 32.6521C86.8168 30.0459 85.4583 26.802 85.4583 22.9207C85.4583 20.4377 86.0496 18.1764 87.2329 16.137C88.4158 14.0981 90.0515 12.4947 92.1405 11.3268C94.2291 10.1594 96.5463 9.57544 99.092 9.57544C102.926 9.57544 106.125 10.8666 108.687 13.4483C111.249 16.0303 112.53 19.2699 112.53 23.1674C112.53 23.6866 112.513 24.1665 112.48 24.6071C112.441 25.114 112.007 25.4862 111.498 25.4862H94.7396ZM102.617 17.1731C101.589 16.351 100.381 15.9397 98.994 15.9397C97.6233 15.9397 96.4239 16.3552 95.396 17.1854C94.6885 17.757 94.1355 18.4706 93.7372 19.3263C93.4534 19.9359 93.9483 20.5772 94.6208 20.5772H103.415C104.095 20.5772 104.591 19.9223 104.296 19.3094C103.882 18.4501 103.323 17.7379 102.617 17.1731ZM75.5821 1.17598C75.5821 0.609292 76.0415 0.149902 76.6082 0.149902H81.8711C82.4378 0.149902 82.8971 0.60929 82.8971 1.17597V34.9547C82.8971 35.5214 82.4378 35.9808 81.8711 35.9808H76.6082C76.0415 35.9808 75.5821 35.5214 75.5821 34.9547V1.17598ZM64.2226 1.17598C64.2226 0.609292 64.682 0.149902 65.2487 0.149902H70.5115C71.0782 0.149902 71.5376 0.60929 71.5376 1.17597V34.9547C71.5376 35.5214 71.0782 35.9808 70.5115 35.9808H65.2487C64.682 35.9808 64.2226 35.5214 64.2226 34.9547V1.17598ZM54.8906 34.8368C52.8021 36.0139 50.4708 36.6028 47.8966 36.6028C43.9948 36.6028 40.7365 35.3104 38.1221 32.725C35.5073 30.1402 34.2001 26.9293 34.2001 23.0925C34.2001 19.256 35.5073 16.0452 38.1221 13.4599C40.7365 10.8751 43.9948 9.58218 47.8966 9.58218C50.4708 9.58218 52.8021 10.1711 54.8906 11.3481C56.9791 12.5256 58.6141 14.1477 59.7961 16.2138C60.9777 18.2805 61.5688 20.5732 61.5688 23.0925C61.5688 25.6118 60.9777 27.9049 59.7961 29.9711C58.6141 32.0377 56.9791 33.6598 54.8906 34.8368ZM52.3407 18.5479C51.1587 17.3296 49.6774 16.7202 47.8966 16.7202C46.1155 16.7202 44.6342 17.3296 43.4526 18.5479C42.2705 19.7666 41.6798 21.2814 41.6798 23.0925C41.6798 24.9041 42.2705 26.4188 43.4526 27.6371C44.6342 28.8558 46.1155 29.4649 47.8966 29.4649C49.6774 29.4649 51.1587 28.8558 52.3407 27.6371C53.5222 26.4188 54.1135 24.9041 54.1135 23.0925C54.1135 21.2814 53.5222 19.7666 52.3407 18.5479ZM18.6778 28.9888C20.4554 28.9888 22.0906 28.5868 23.5831 27.7821C24.7806 27.1366 25.8022 26.2961 26.6479 25.2605C26.9988 24.8308 27.614 24.6952 28.0838 24.9905L33.0763 28.1294C33.5651 28.4367 33.7065 29.0888 33.3588 29.5497C31.8004 31.6153 29.8468 33.2655 27.4974 34.5002C24.8307 35.9022 21.8908 36.6028 18.6778 36.6028C16.1171 36.6028 13.7031 36.134 11.4363 35.1969C9.16899 34.26 7.22826 32.9868 5.61364 31.3775C3.99891 29.7687 2.72678 27.8404 1.79702 25.5924C0.867362 23.3448 0.402588 20.9436 0.402588 18.389C0.402588 15.8346 0.867362 13.4335 1.79702 11.1856C2.72678 8.93796 3.99891 7.00954 5.61364 5.40041C7.22826 3.7916 9.16899 2.52264 11.4363 1.59341C13.7031 0.664626 16.1171 0.19996 18.6778 0.19996C21.8908 0.19996 24.8307 0.900985 27.4974 2.3026C29.8468 3.53773 31.8003 5.18785 33.3586 7.2531C33.7064 7.71403 33.565 8.36615 33.0762 8.67349L28.0836 11.8124C27.614 12.1077 26.9988 11.9722 26.6478 11.5425C25.8007 10.5056 24.775 9.66079 23.5708 9.00837C22.07 8.1958 20.4393 7.78914 18.6778 7.78914C15.742 7.78914 13.2871 8.79682 11.3139 10.8123C9.34028 12.8278 8.3536 15.3533 8.3536 18.389C8.3536 21.4246 9.34028 23.9501 11.3139 25.9656C13.2871 27.9811 15.742 28.9888 18.6778 28.9888Z" />
<path fill-rule="evenodd" clip-rule="evenodd" d="M211.092 20.125H221.373C223.465 20.125 225.161 21.4975 225.161 23.1905C225.161 24.8836 223.465 26.2561 221.373 26.2561H211.092C209 26.2561 207.304 24.8836 207.304 23.1905C207.304 21.4975 209 20.125 211.092 20.125Z" fill="#D30D44"/>
</svg>
