<svg width="11" height="10" viewBox="0 0 11 10" fill="none" xmlns="http://www.w3.org/2000/svg">
<path d="M10.0771 4.31309C10.4085 4.31309 10.6771 4.58172 10.6771 4.91309C10.6771 5.24446 10.4085 5.51309 10.0771 5.51309L10.0771 4.31309ZM0.899955 5.33735C0.66564 5.10303 0.66564 4.72314 0.899955 4.48882L4.71833 0.670444C4.95265 0.43613 5.33255 0.43613 5.56686 0.670445C5.80117 0.90476 5.80117 1.28466 5.56686 1.51897L2.17275 4.91309L5.56686 8.3072C5.80117 8.54151 5.80117 8.92141 5.56686 9.15573C5.33254 9.39004 4.95265 9.39004 4.71833 9.15573L0.899955 5.33735ZM10.0771 5.51309L1.32422 5.51309L1.32422 4.31309L10.0771 4.31309L10.0771 5.51309Z" fill="white"/>
</svg>
