<svg width="182" height="20" viewBox="0 0 182 20" fill="none" xmlns="http://www.w3.org/2000/svg">
<path fill-rule="evenodd" clip-rule="evenodd" d="M176.402 11.4956C176.229 11.6862 176.22 11.974 176.38 12.1753L181.133 18.143C181.407 18.487 181.162 18.9952 180.722 18.9952H177.143C176.984 18.9952 176.833 18.9229 176.733 18.7986L173.844 15.1954C173.643 14.9439 173.264 14.9318 173.047 15.1698L172.621 15.6359C172.533 15.7327 172.484 15.859 172.484 15.99V18.4701C172.484 18.7601 172.249 18.9952 171.959 18.9952H169.266C168.976 18.9952 168.741 18.7601 168.741 18.4701V1.18379C168.741 0.893785 168.976 0.658691 169.266 0.658691H171.959C172.249 0.658691 172.484 0.893784 172.484 1.18379V9.25648C172.484 9.74142 173.085 9.96718 173.404 9.60211L176.853 5.65807C176.953 5.54403 177.097 5.47861 177.248 5.47861H180.671C181.126 5.47861 181.366 6.01884 181.06 6.35633L176.402 11.4956ZM161.618 15.6653C162.214 15.6653 162.755 15.5181 163.244 15.2234C163.571 15.026 163.85 14.7832 164.081 14.4949C164.268 14.2607 164.6 14.1682 164.855 14.3251L167.174 15.7491C167.418 15.8988 167.498 16.2177 167.335 16.4526C166.763 17.2752 166.028 17.9364 165.13 18.4362C164.079 19.0211 162.909 19.3135 161.618 19.3135C159.624 19.3135 157.958 18.653 156.622 17.3316C155.286 16.0104 154.617 14.3694 154.617 12.4083C154.617 10.4475 155.286 8.80639 156.622 7.48505C157.958 6.16387 159.624 5.50312 161.618 5.50312C162.909 5.50312 164.079 5.7956 165.13 6.38045C166.027 6.87984 166.762 7.53708 167.333 8.35211C167.498 8.58652 167.418 8.90589 167.174 9.05641L164.856 10.4894C164.6 10.6474 164.268 10.5552 164.08 10.3207C163.849 10.033 163.571 9.7905 163.244 9.59323C162.755 9.29875 162.214 9.15139 161.618 9.15139C160.707 9.15139 159.95 9.46286 159.346 10.0855C158.742 10.7085 158.44 11.4827 158.44 12.4083C158.44 13.3342 158.742 14.1084 159.346 14.7311C159.95 15.354 160.707 15.6653 161.618 15.6653ZM149.363 18.8397C149.363 18.4145 148.821 18.1851 148.468 18.4219C147.602 19.0024 146.595 19.2927 145.446 19.2927C143.67 19.2927 142.185 18.6331 140.991 17.3137C139.797 15.9946 139.129 14.3264 139.129 12.3483C139.129 10.3704 139.797 8.80138 140.991 7.48204C142.185 6.16287 143.67 5.50312 145.446 5.50312C146.566 5.50312 147.551 5.77879 148.402 6.33017C148.783 6.57709 149.363 6.33063 149.363 5.87669C149.363 5.59834 149.588 5.37269 149.867 5.37269H152.543C152.833 5.37269 153.068 5.60779 153.068 5.89779V18.7866C153.068 19.0766 152.833 19.3117 152.543 19.3117H149.835C149.574 19.3117 149.363 19.1004 149.363 18.8397ZM148.458 10.0786C147.855 9.45685 147.099 9.14588 146.19 9.14588C145.289 9.14588 144.54 9.45685 143.941 10.0786C143.342 10.7006 143.042 11.4736 143.042 12.3979C143.042 13.3224 143.342 14.0954 143.941 14.7172C144.54 15.3392 145.289 15.6499 146.19 15.6499C147.099 15.6499 147.855 15.3392 148.458 14.7172C149.061 14.0954 149.363 13.3224 149.363 12.3979C149.363 11.4736 149.061 10.7006 148.458 10.0786ZM135.822 19.3135C134.286 19.3135 133.136 18.8955 132.372 18.0593C131.609 17.2232 131.227 16.092 131.227 14.6658V1.2021C131.227 0.9121 131.462 0.677007 131.752 0.677007H134.445C134.735 0.677007 134.97 0.9121 134.97 1.2021V5.17627C134.97 5.46627 135.205 5.70137 135.495 5.70137H137.8C138.09 5.70137 138.326 5.93646 138.326 6.22646V8.63982C138.326 8.92982 138.09 9.16492 137.8 9.16492H135.495C135.205 9.16492 134.97 9.40001 134.97 9.69001V14.0419C134.97 15.1031 135.517 15.6336 136.61 15.6336C136.907 15.6336 137.212 15.5868 137.525 15.4931C137.903 15.3802 138.326 15.6349 138.326 16.0295V18.4201C138.326 18.6169 138.216 18.7993 138.036 18.8777C137.368 19.1683 136.63 19.3135 135.822 19.3135ZM126.585 18.6196C125.525 19.0822 124.382 19.3416 123.071 19.3416C123.007 19.3416 122.841 19.3416 122.841 19.3416C122.841 19.3416 122.623 19.3416 122.511 19.3416H114.019C113.025 19.3416 112.219 18.5219 112.219 17.5109C112.219 16.4998 113.025 15.6802 114.019 15.6802H122.511C122.617 15.6802 122.826 15.6802 122.826 15.6802C122.826 15.6802 123.01 15.6802 123.071 15.6802C123.889 15.6802 124.517 15.5444 125.089 15.2134C125.661 14.8823 125.947 14.4579 125.947 13.94C125.947 13.7362 125.907 13.5516 125.828 13.3861C125.748 13.2206 125.615 13.0699 125.427 12.934C125.239 12.7983 125.06 12.6815 124.889 12.5839C124.717 12.4864 124.465 12.3845 124.131 12.2782C123.797 12.1722 123.528 12.0916 123.324 12.0363C123.119 11.9812 122.808 11.9026 122.391 11.8008C118.267 10.7906 116.206 8.8764 116.206 6.0579C116.206 4.44513 116.832 3.14628 118.084 2.16142C119.336 1.17677 120.984 0.684309 123.029 0.684309C124.34 0.684309 125.54 0.888076 126.629 1.29556C127.56 1.64406 128.344 2.08569 128.979 2.62048C129.166 2.77783 129.2 3.04828 129.074 3.25772L127.777 5.41541C127.603 5.70493 127.204 5.75641 126.932 5.55632C126.508 5.24483 126.013 4.97908 125.446 4.75911C124.636 4.44513 123.822 4.28792 123.004 4.28792C122.211 4.28792 121.56 4.43873 121.051 4.74001C120.542 5.0414 120.287 5.42978 120.287 5.90508C120.287 6.18526 120.375 6.43993 120.55 6.66914C120.726 6.89831 120.978 7.09372 121.308 7.25489C121.637 7.41622 121.976 7.5521 122.322 7.66237C122.668 7.77274 123.067 7.87465 123.518 7.96793C123.826 8.03599 124.114 8.10604 124.382 8.17805C124.649 8.25028 125.016 8.36906 125.483 8.53457C125.951 8.70014 126.372 8.8784 126.748 9.06942C127.123 9.26043 127.524 9.51092 127.95 9.82067C128.375 10.1307 128.732 10.4659 129.02 10.8266C129.308 11.1876 129.548 11.6205 129.74 12.1255C129.932 12.6306 130.028 13.1718 130.028 13.749C130.028 14.8271 129.719 15.7928 129.102 16.6459C128.484 17.499 127.645 18.157 126.585 18.6196ZM108.143 9.41681H104.204C104.118 9.41681 104.033 9.41108 103.95 9.39995C103.923 9.39634 103.896 9.39408 103.869 9.39408H103.578C102.452 9.39408 101.581 9.69971 100.968 10.3109C100.355 10.9221 100.048 11.7498 100.048 12.794V18.8043C100.048 19.0943 99.8127 19.3294 99.5227 19.3294H96.8295C96.5395 19.3294 96.3044 19.0943 96.3044 18.8043V6.00371C96.3044 5.71371 96.5395 5.47861 96.8295 5.47861H99.5857C99.8409 5.47861 100.048 5.68552 100.048 5.94075C100.048 6.37145 100.616 6.5927 100.963 6.33674C101.731 5.76885 102.603 5.48491 103.578 5.48491H104.133C104.138 5.48491 104.142 5.48908 104.142 5.49422C104.142 5.49948 104.146 5.5037 104.151 5.50355C104.169 5.50305 104.186 5.50273 104.204 5.50273H108.143C109.206 5.50273 110.068 6.37889 110.068 7.45977C110.068 8.54059 109.206 9.41681 108.143 9.41681ZM91.5216 18.4098C90.4528 19.0122 89.2597 19.3135 87.9424 19.3135C85.9456 19.3135 84.2782 18.6522 82.9402 17.3291C81.6022 16.0063 80.9332 14.3631 80.9332 12.3996C80.9332 10.4363 81.6022 8.79314 82.9402 7.47013C84.2782 6.14733 85.9456 5.48569 87.9424 5.48569C89.2597 5.48569 90.4528 5.78708 91.5216 6.38942C92.5904 6.99198 93.4271 7.82208 94.032 8.87946C94.6367 9.93706 94.9392 11.1104 94.9392 12.3996C94.9392 13.6889 94.6367 14.8624 94.032 15.9198C93.4271 16.9774 92.5904 17.8075 91.5216 18.4098ZM90.2166 10.0739C89.6118 9.45044 88.8537 9.13858 87.9424 9.13858C87.0309 9.13858 86.2728 9.45044 85.6681 10.0739C85.0632 10.6976 84.7609 11.4728 84.7609 12.3996C84.7609 13.3267 85.0632 14.1018 85.6681 14.7253C86.2728 15.349 87.0309 15.6607 87.9424 15.6607C88.8537 15.6607 89.6118 15.349 90.2166 14.7253C90.8213 14.1018 91.1239 13.3267 91.1239 12.3996C91.1239 11.4728 90.8213 10.6976 90.2166 10.0739ZM78.0852 19.3135C76.5494 19.3135 75.3997 18.8955 74.636 18.0593C73.8723 17.2232 73.4904 16.092 73.4904 14.6658V1.20211C73.4904 0.912106 73.7255 0.677013 74.0155 0.677013H76.7088C76.9988 0.677013 77.2339 0.912106 77.2339 1.20211V5.17628C77.2339 5.46628 77.469 5.70137 77.759 5.70137H80.0641C80.3541 5.70137 80.5892 5.93647 80.5892 6.22647V8.63983C80.5892 8.92983 80.3541 9.16492 80.0641 9.16492H77.759C77.469 9.16492 77.2339 9.40001 77.2339 9.69002V14.0419C77.2339 15.1031 77.7804 15.6336 78.874 15.6336C79.1703 15.6336 79.4753 15.5868 79.7891 15.4931C80.1671 15.3802 80.5892 15.635 80.5892 16.0295V18.4201C80.5892 18.6169 80.4801 18.7993 80.2997 18.8778C79.6313 19.1683 78.8932 19.3135 78.0852 19.3135ZM65.3947 15.6607C65.9913 15.6607 66.5338 15.5134 67.0228 15.2183C67.3507 15.0205 67.6302 14.7771 67.8612 14.4882C68.0485 14.254 68.38 14.1616 68.6356 14.3185L70.9583 15.745C71.2021 15.8947 71.2829 16.2136 71.1197 16.4485C70.5471 17.2724 69.8111 17.9346 68.9118 18.4351C67.8595 19.0207 66.6873 19.3135 65.3947 19.3135C63.398 19.3135 61.7305 18.6522 60.3926 17.3291C59.0545 16.0063 58.3855 14.3631 58.3855 12.3996C58.3855 10.4363 59.0545 8.79314 60.3926 7.47013C61.7305 6.14733 63.398 5.48569 65.3947 5.48569C66.6873 5.48569 67.8595 5.77861 68.9118 6.36419C69.8101 6.8643 70.5454 7.52255 71.1177 8.33885C71.2821 8.57327 71.2022 8.89263 70.9587 9.04315L68.636 10.4787C68.3805 10.6366 68.048 10.5445 67.8602 10.31C67.6294 10.0216 67.3502 9.77864 67.0228 9.58098C66.5338 9.2861 65.9913 9.13858 65.3947 9.13858C64.4833 9.13858 63.7252 9.45044 63.1205 10.0739C62.5156 10.6976 62.2133 11.4728 62.2133 12.3996C62.2133 13.3267 62.5156 14.1018 63.1205 14.7253C63.7252 15.349 64.4833 15.6607 65.3947 15.6607ZM48.7772 13.6246C48.4224 13.6246 48.1691 13.972 48.3389 14.2836C48.5761 14.7189 48.8968 15.0799 49.301 15.3667C49.8939 15.7876 50.5994 15.9979 51.4179 15.9979C52.1194 15.9979 52.7582 15.859 53.3344 15.5813C53.7173 15.3968 54.0467 15.1807 54.3226 14.933C54.5455 14.7329 54.8886 14.6982 55.1143 14.8951L56.8205 16.3836C57.0395 16.5748 57.0629 16.9091 56.8558 17.1131C56.22 17.7395 55.4763 18.241 54.6246 18.6173C53.6057 19.0675 52.5034 19.2927 51.3177 19.2927C49.2383 19.2927 47.5035 18.6258 46.1131 17.2918C44.7227 15.958 44.0275 14.298 44.0275 12.3117C44.0275 11.041 44.3301 9.88382 44.9356 8.84014C45.541 7.79674 46.3781 6.97616 47.4471 6.3785C48.516 5.78106 49.7018 5.48223 51.0046 5.48223C52.9668 5.48223 54.6037 6.14299 55.9148 7.46417C57.2257 8.78551 57.8814 10.4434 57.8814 12.438C57.8814 12.7037 57.8729 12.9493 57.8557 13.1747C57.836 13.4341 57.6137 13.6246 57.3536 13.6246H48.7772ZM52.8083 9.37036C52.2822 8.94963 51.6641 8.73918 50.9544 8.73918C50.253 8.73918 49.6392 8.9518 49.1131 9.37665C48.7511 9.66917 48.4681 10.0344 48.2642 10.4723C48.119 10.7843 48.3723 11.1124 48.7164 11.1124H53.217C53.5651 11.1124 53.8187 10.7773 53.6677 10.4636C53.456 10.0238 53.1696 9.65941 52.8083 9.37036ZM38.9733 1.18379C38.9733 0.893785 39.2084 0.658691 39.4984 0.658691H42.1917C42.4817 0.658691 42.7168 0.893784 42.7168 1.18379V18.4701C42.7168 18.7601 42.4817 18.9952 42.1917 18.9952H39.4984C39.2084 18.9952 38.9733 18.7601 38.9733 18.4701V1.18379ZM33.1601 1.18379C33.1601 0.893785 33.3952 0.658691 33.6852 0.658691H36.3784C36.6684 0.658691 36.9035 0.893784 36.9035 1.18379V18.4701C36.9035 18.7601 36.6684 18.9952 36.3784 18.9952H33.6852C33.3952 18.9952 33.1601 18.7601 33.1601 18.4701V1.18379ZM28.3844 18.4098C27.3156 19.0122 26.1226 19.3135 24.8052 19.3135C22.8084 19.3135 21.141 18.6522 19.8031 17.3291C18.465 16.0063 17.796 14.3631 17.796 12.3996C17.796 10.4363 18.465 8.79314 19.8031 7.47013C21.141 6.14733 22.8084 5.48569 24.8052 5.48569C26.1226 5.48569 27.3156 5.78708 28.3844 6.38942C29.4532 6.99198 30.2899 7.82208 30.8948 8.87946C31.4995 9.93706 31.802 11.1104 31.802 12.3996C31.802 13.6889 31.4995 14.8624 30.8948 15.9198C30.2899 16.9774 29.4532 17.8075 28.3844 18.4098ZM27.0795 10.0739C26.4746 9.45044 25.7165 9.13858 24.8052 9.13858C23.8937 9.13858 23.1356 9.45044 22.531 10.0739C21.926 10.6976 21.6237 11.4728 21.6237 12.3996C21.6237 13.3267 21.926 14.1018 22.531 14.7253C23.1356 15.349 23.8937 15.6607 24.8052 15.6607C25.7165 15.6607 26.4746 15.349 27.0795 14.7253C27.6841 14.1018 27.9867 13.3267 27.9867 12.3996C27.9867 11.4728 27.6841 10.6976 27.0795 10.0739ZM9.85239 15.4171C10.7621 15.4171 11.5989 15.2114 12.3627 14.7995C12.9755 14.4692 13.4983 14.0391 13.9311 13.5091C14.1107 13.2892 14.4255 13.2198 14.6659 13.3709L17.2208 14.9773C17.471 15.1346 17.5434 15.4682 17.3654 15.7041C16.5679 16.7612 15.5682 17.6057 14.3658 18.2376C13.0012 18.955 11.4966 19.3135 9.85239 19.3135C8.54192 19.3135 7.30657 19.0736 6.14651 18.5941C4.98623 18.1146 3.99305 17.463 3.16677 16.6395C2.34043 15.8162 1.68941 14.8294 1.2136 13.6789C0.737849 12.5287 0.5 11.2999 0.5 9.99258C0.5 8.68538 0.737849 7.45659 1.2136 6.30622C1.68941 5.15601 2.34043 4.16913 3.16677 3.34565C3.99305 2.52234 4.98623 1.87294 6.14651 1.39741C7.30657 0.922103 8.54192 0.684309 9.85239 0.684309C11.4966 0.684309 13.0012 1.04306 14.3658 1.76034C15.5681 2.39242 16.5679 3.23688 17.3654 4.29377C17.5433 4.52965 17.471 4.86338 17.2208 5.02066L14.6659 6.62702C14.4255 6.77814 14.1107 6.70877 13.9311 6.4889C13.4976 5.95826 12.9727 5.52591 12.3564 5.19204C11.5884 4.7762 10.7539 4.56809 9.85239 4.56809C8.35001 4.56809 7.09369 5.08378 6.08387 6.1152C5.07389 7.14663 4.56895 8.43907 4.56895 9.99258C4.56895 11.5461 5.07389 12.8385 6.08387 13.87C7.09369 14.9014 8.35001 15.4171 9.85239 15.4171Z" />
<path fill-rule="evenodd" clip-rule="evenodd" d="M108.321 10.881H113.582C114.653 10.881 115.521 11.5834 115.521 12.4498C115.521 13.3162 114.653 14.0186 113.582 14.0186H108.321C107.25 14.0186 106.382 13.3162 106.382 12.4498C106.382 11.5834 107.25 10.881 108.321 10.881Z" fill="#D30D44"/>
</svg>
