<svg width="13" height="12" viewBox="0 0 13 12" fill="none" xmlns="http://www.w3.org/2000/svg">
<path d="M4.1754 0.0986605C3.22676 0.0986605 2.36213 0.658705 1.97096 1.52297L1.4524 2.66955C0.952453 3.10019 0.625 3.73956 0.625 4.4534C0.625 5.74985 1.68977 6.81457 2.98617 6.81457C3.73619 6.81457 4.32981 6.40694 4.7631 5.8558C5.19642 6.4068 5.78548 6.81457 6.53541 6.81457C7.27846 6.81457 7.87061 6.41546 8.30427 5.87309C8.73792 6.41623 9.33295 6.81457 10.0766 6.81457C11.373 6.81457 12.4366 5.74985 12.4366 4.4534C12.4366 3.75529 12.1182 3.13695 11.638 2.70758L11.0561 1.42731C10.6912 0.621285 9.88503 0.0986328 9.0003 0.0986328L4.1754 0.0986605ZM4.76194 7.39306C4.25655 7.73484 3.67941 7.99459 2.98617 7.99459C2.57747 7.99459 2.18541 7.92047 1.81885 7.79062V10.1288C1.81885 11.0993 2.61599 11.9011 3.58657 11.9011H4.76081V10.7188C4.76081 9.74818 5.5637 8.9499 6.53428 8.9499C7.50486 8.9499 8.302 9.74821 8.302 10.7188V11.9011H9.48891C10.4595 11.9011 11.2566 11.0993 11.2566 10.1288V7.78603C10.8863 7.91895 10.4903 7.99462 10.0766 7.99462C9.38661 7.99462 8.81058 7.73758 8.3043 7.39884C7.79945 7.737 7.22495 7.99462 6.53544 7.99462C5.84254 7.99459 5.26604 7.73476 4.76194 7.39306Z"/>
</svg>
