<svg width="12" height="15" viewBox="0 0 12 15" fill="none" xmlns="http://www.w3.org/2000/svg">
<path d="M11.4658 6.17139C11.4658 3.18019 9.00877 0.723145 6.01758 0.723145C3.02639 0.723145 0.569336 3.18019 0.569336 6.17139C0.569336 7.7204 1.21031 9.05575 2.22517 10.0706L0.943235 12.4743C0.836407 12.6879 0.889821 12.9016 0.996649 13.0618C1.15689 13.2221 1.37055 13.2755 1.5842 13.2221L2.65249 12.9016L2.86614 13.863C2.91956 14.0767 3.0798 14.2369 3.29346 14.2903C3.50711 14.3437 3.72077 14.2369 3.8276 14.0233L5.16295 11.5662C5.75051 11.673 6.33806 11.673 6.92562 11.5662L8.26097 14.0233C8.3678 14.2369 8.58146 14.3437 8.79511 14.2903C9.00877 14.2369 9.22243 14.0767 9.22243 13.863L9.43608 12.9016L10.451 13.2221C10.6646 13.2755 10.8783 13.2221 11.0385 13.0618C11.1987 12.9016 11.1987 12.6345 11.0919 12.4743L9.80998 10.0706C10.8249 9.05575 11.4658 7.66698 11.4658 6.17139ZM8.04731 5.8509L5.64368 7.50674L5.53685 7.56015C5.43002 7.61357 5.32319 7.66698 5.16295 7.66698C4.94929 7.66698 4.78905 7.56015 4.68222 7.39991L4.25491 6.81236L3.8276 6.27821C3.61394 5.95773 3.72077 5.58383 3.98784 5.37017C4.25491 5.15652 4.68222 5.20993 4.84247 5.53042L5.32319 6.17139L7.35293 4.78262C7.62 4.56896 8.04731 4.67579 8.20756 4.94286C8.42121 5.26335 8.31438 5.63724 8.04731 5.8509Z" fill="#D30D44"/>
</svg>
