<svg width="134" height="15" viewBox="0 0 134 15" fill="none" xmlns="http://www.w3.org/2000/svg">
<path fill-rule="evenodd" clip-rule="evenodd" d="M129.96 8.76007C129.833 8.90042 129.826 9.11227 129.944 9.26044L133.442 13.6535C133.644 13.9067 133.464 14.2808 133.14 14.2808H130.505C130.388 14.2808 130.277 14.2276 130.204 14.1361L128.077 11.4836C127.929 11.2985 127.65 11.2896 127.49 11.4648L127.177 11.8079C127.112 11.8792 127.076 11.9721 127.076 12.0686V13.8943C127.076 14.1077 126.903 14.2808 126.689 14.2808H124.706C124.493 14.2808 124.32 14.1077 124.32 13.8943V1.16925C124.32 0.955775 124.493 0.782715 124.706 0.782715H126.689C126.903 0.782715 127.076 0.955774 127.076 1.16925V7.11181C127.076 7.46879 127.518 7.63498 127.753 7.36624L130.292 4.46291C130.365 4.37897 130.471 4.33081 130.583 4.33081H133.102C133.437 4.33081 133.614 4.72848 133.388 4.97692L129.96 8.76007ZM119.077 11.8295C119.515 11.8295 119.914 11.7212 120.274 11.5043C120.515 11.3589 120.72 11.1802 120.89 10.9679C121.028 10.7955 121.272 10.7275 121.46 10.843L123.167 11.8912C123.346 12.0015 123.406 12.2362 123.285 12.4091C122.864 13.0147 122.323 13.5014 121.662 13.8693C120.889 14.2998 120.027 14.5151 119.077 14.5151C117.609 14.5151 116.383 14.0289 115.399 13.0562C114.415 12.0836 113.923 10.8756 113.923 9.43199C113.923 7.98856 114.415 6.78049 115.399 5.80781C116.383 4.83525 117.609 4.34885 119.077 4.34885C120.027 4.34885 120.889 4.56415 121.662 4.99468C122.323 5.36229 122.863 5.84611 123.284 6.44607C123.405 6.61863 123.346 6.85373 123.167 6.96454L121.46 8.01941C121.272 8.1357 121.027 8.06786 120.889 7.89522C120.719 7.68342 120.514 7.50492 120.274 7.3597C119.914 7.14292 119.515 7.03445 119.077 7.03445C118.407 7.03445 117.849 7.26374 117.405 7.7221C116.96 8.18066 116.738 8.75057 116.738 9.43199C116.738 10.1136 116.96 10.6835 117.405 11.1419C117.849 11.6004 118.407 11.8295 119.077 11.8295ZM110.055 14.1663C110.055 13.8533 109.657 13.6845 109.397 13.8588C108.759 14.2861 108.018 14.4998 107.172 14.4998C105.865 14.4998 104.771 14.0142 103.893 13.043C103.014 12.0719 102.522 10.8439 102.522 9.38779C102.522 7.93183 103.014 6.7768 103.893 5.80559C104.771 4.83451 105.865 4.34885 107.172 4.34885C107.997 4.34885 108.722 4.55178 109.348 4.95767C109.628 5.13943 110.055 4.958 110.055 4.62384C110.055 4.41894 110.221 4.25284 110.426 4.25284H112.397C112.61 4.25284 112.783 4.4259 112.783 4.63937V14.1272C112.783 14.3407 112.61 14.5138 112.397 14.5138H110.403C110.211 14.5138 110.055 14.3582 110.055 14.1663ZM109.389 7.71701C108.945 7.25931 108.389 7.03039 107.72 7.03039C107.057 7.03039 106.505 7.25931 106.064 7.71701C105.623 8.17484 105.403 8.74389 105.403 9.42432C105.403 10.1048 105.623 10.6739 106.064 11.1316C106.505 11.5895 107.057 11.8182 107.72 11.8182C108.389 11.8182 108.945 11.5895 109.389 11.1316C109.833 10.6739 110.055 10.1048 110.055 9.42432C110.055 8.74389 109.833 8.17484 109.389 7.71701ZM100.087 14.5151C98.9566 14.5151 98.1103 14.2074 97.5481 13.5918C96.9859 12.9764 96.7048 12.1436 96.7048 11.0938V1.18274C96.7048 0.969257 96.8779 0.796198 97.0914 0.796198H99.074C99.2875 0.796198 99.4605 0.969257 99.4605 1.18274V4.10824C99.4605 4.32172 99.6336 4.49478 99.8471 4.49478H101.544C101.757 4.49478 101.931 4.66784 101.931 4.88132V6.65787C101.931 6.87135 101.757 7.04441 101.544 7.04441H99.8471C99.6336 7.04441 99.4605 7.21747 99.4605 7.43095V10.6345C99.4605 11.4157 99.8629 11.8062 100.668 11.8062C100.886 11.8062 101.111 11.7717 101.341 11.7027C101.62 11.6196 101.931 11.8072 101.931 12.0976V13.8574C101.931 14.0023 101.85 14.1366 101.717 14.1943C101.225 14.4082 100.682 14.5151 100.087 14.5151ZM93.2879 14.0043C92.5076 14.3448 91.666 14.5357 90.7015 14.5357C90.6543 14.5357 90.5316 14.5357 90.5316 14.5357C90.5316 14.5357 90.3711 14.5357 90.2893 14.5357H84.038C83.3062 14.5357 82.713 13.9324 82.713 13.1881C82.713 12.4439 83.3062 11.8405 84.038 11.8405H90.2893C90.3668 11.8405 90.5206 11.8405 90.5206 11.8405C90.5206 11.8405 90.6565 11.8405 90.7015 11.8405C91.3036 11.8405 91.7657 11.7406 92.1866 11.4969C92.6074 11.2531 92.818 10.9407 92.818 10.5595C92.818 10.4095 92.7887 10.2736 92.7304 10.1517C92.6719 10.0299 92.5737 9.919 92.4355 9.81898C92.2972 9.71907 92.165 9.63311 92.0392 9.5612C91.9132 9.48942 91.7272 9.41444 91.4816 9.33622C91.2358 9.25817 91.0376 9.19885 90.8871 9.15814C90.7365 9.11756 90.5077 9.05971 90.2005 8.98474C87.1651 8.24113 85.6476 6.83202 85.6476 4.75724C85.6476 3.57003 86.1085 2.61391 87.0301 1.88892C87.9517 1.16409 89.1651 0.801572 90.6705 0.801572C91.6351 0.801572 92.5184 0.951572 93.3202 1.25153C94.006 1.50808 94.5828 1.83317 95.0506 2.22685C95.1882 2.34268 95.2131 2.54176 95.1203 2.69594L94.1653 4.28428C94.0371 4.49741 93.7434 4.53531 93.5431 4.38801C93.2312 4.15871 92.8666 3.96309 92.4493 3.80116C91.8532 3.57003 91.2542 3.4543 90.6521 3.4543C90.0683 3.4543 89.5891 3.56531 89.2143 3.7871C88.8395 4.00896 88.6521 4.29486 88.6521 4.64475C88.6521 4.85099 88.7167 5.03846 88.8457 5.20719C88.9747 5.37589 89.1605 5.51974 89.4033 5.63838C89.6459 5.75714 89.8948 5.85717 90.1498 5.93833C90.4047 6.01959 90.6982 6.09461 91.03 6.16327C91.2572 6.21337 91.4692 6.26494 91.6659 6.31795C91.8625 6.37112 92.1328 6.45856 92.4769 6.58039C92.821 6.70227 93.1313 6.8335 93.4078 6.97411C93.6843 7.11472 93.9792 7.29911 94.2925 7.52713C94.6059 7.75534 94.8686 8.00213 95.0806 8.26766C95.2925 8.53334 95.4691 8.85203 95.6105 9.22377C95.7518 9.59564 95.8225 9.99398 95.8225 10.4189C95.8225 11.2126 95.5951 11.9234 95.1404 12.5514C94.6857 13.1794 94.0682 13.6637 93.2879 14.0043ZM79.7126 7.22983H76.8123C76.749 7.22983 76.6868 7.22562 76.6257 7.21742C76.6059 7.21476 76.5859 7.21311 76.5659 7.21311H76.3521C75.5226 7.21311 74.8821 7.43809 74.4305 7.888C73.9789 8.33796 73.7531 8.94722 73.7531 9.71587V14.1402C73.7531 14.3537 73.58 14.5268 73.3666 14.5268H71.384C71.1705 14.5268 70.9974 14.3537 70.9974 14.1402V4.71735C70.9974 4.50387 71.1705 4.33081 71.384 4.33081H73.4129C73.6008 4.33081 73.7531 4.48312 73.7531 4.671C73.7531 4.98805 74.1715 5.15092 74.4265 4.9625C74.9922 4.54446 75.6341 4.33544 76.3521 4.33544H76.76C76.7638 4.33544 76.7668 4.33851 76.7668 4.3423C76.7668 4.34617 76.77 4.34927 76.7739 4.34916C76.7867 4.34879 76.7994 4.34856 76.8123 4.34856H79.7126C80.4949 4.34856 81.129 4.99353 81.129 5.7892C81.129 6.58482 80.4949 7.22983 79.7126 7.22983ZM67.4767 13.8499C66.6899 14.2933 65.8117 14.5151 64.8419 14.5151C63.372 14.5151 62.1446 14.0283 61.1597 13.0543C60.1747 12.0806 59.6822 10.871 59.6822 9.42559C59.6822 7.98032 60.1747 6.77073 61.1597 5.79682C62.1446 4.82307 63.372 4.33601 64.8419 4.33601C65.8117 4.33601 66.6899 4.55788 67.4767 5.00128C68.2635 5.44484 68.8794 6.05591 69.3247 6.83427C69.7698 7.61281 69.9925 8.47652 69.9925 9.42559C69.9925 10.3747 69.7698 11.2385 69.3247 12.0169C68.8794 12.7954 68.2635 13.4065 67.4767 13.8499ZM66.5161 7.71357C66.0708 7.25459 65.5128 7.02502 64.8419 7.02502C64.171 7.02502 63.6129 7.25459 63.1678 7.71357C62.7225 8.17267 62.4999 8.74332 62.4999 9.42559C62.4999 10.108 62.7225 10.6786 63.1678 11.1376C63.6129 11.5967 64.171 11.8262 64.8419 11.8262C65.5128 11.8262 66.0708 11.5967 66.5161 11.1376C66.9612 10.6786 67.1839 10.108 67.1839 9.42559C67.1839 8.74332 66.9612 8.17267 66.5161 7.71357ZM57.5858 14.5151C56.4552 14.5151 55.6089 14.2074 55.0467 13.5918C54.4845 12.9764 54.2034 12.1436 54.2034 11.0938V1.18274C54.2034 0.969261 54.3764 0.796202 54.5899 0.796202H56.5725C56.786 0.796202 56.9591 0.969261 56.9591 1.18274V4.10825C56.9591 4.32173 57.1321 4.49479 57.3456 4.49479H59.0425C59.256 4.49479 59.429 4.66785 59.429 4.88133V6.65787C59.429 6.87135 59.256 7.04441 59.0425 7.04441H57.3456C57.1321 7.04441 56.9591 7.21747 56.9591 7.43095V10.6345C56.9591 11.4157 57.3614 11.8062 58.1664 11.8062C58.3845 11.8062 58.609 11.7717 58.84 11.7027C59.1183 11.6196 59.429 11.8072 59.429 12.0976V13.8574C59.429 14.0023 59.3487 14.1366 59.2159 14.1943C58.7239 14.4082 58.1806 14.5151 57.5858 14.5151ZM48.2439 11.8262C48.683 11.8262 49.0824 11.7177 49.4424 11.5005C49.6838 11.3549 49.8895 11.1757 50.0595 10.963C50.1974 10.7906 50.4415 10.7226 50.6296 10.8381L52.3394 11.8882C52.5189 11.9984 52.5784 12.2331 52.4582 12.4061C52.0367 13.0126 51.4949 13.5 50.8329 13.8685C50.0583 14.2995 49.1954 14.5151 48.2439 14.5151C46.774 14.5151 45.5466 14.0283 44.5617 13.0543C43.5767 12.0806 43.0842 10.871 43.0842 9.42559C43.0842 7.98032 43.5767 6.77073 44.5617 5.79682C45.5466 4.82307 46.774 4.33601 48.2439 4.33601C49.1954 4.33601 50.0583 4.55165 50.8329 4.98271C51.4942 5.35086 52.0355 5.83541 52.4568 6.43631C52.5777 6.60888 52.519 6.84397 52.3397 6.95477L50.6299 8.01151C50.4418 8.12779 50.197 8.05997 50.0588 7.88731C49.8889 7.67506 49.6834 7.49619 49.4424 7.35068C49.0824 7.13362 48.683 7.02502 48.2439 7.02502C47.5729 7.02502 47.0149 7.25459 46.5698 7.71357C46.1245 8.17267 45.902 8.74332 45.902 9.42559C45.902 10.108 46.1245 10.6786 46.5698 11.1376C47.0149 11.5967 47.5729 11.8262 48.2439 11.8262ZM36.0112 10.3273C35.75 10.3273 35.5636 10.583 35.6886 10.8124C35.8632 11.1329 36.0993 11.3986 36.3968 11.6097C36.8332 11.9196 37.3526 12.0743 37.9551 12.0743C38.4715 12.0743 38.9418 11.9721 39.3659 11.7677C39.6478 11.6319 39.8902 11.4728 40.0934 11.2905C40.2575 11.1432 40.51 11.1176 40.6762 11.2626L41.9321 12.3583C42.0934 12.499 42.1106 12.7451 41.9582 12.8953C41.4901 13.3565 40.9426 13.7256 40.3157 14.0026C39.5656 14.334 38.7542 14.4998 37.8814 14.4998C36.3507 14.4998 35.0736 14.0088 34.0501 13.0269C33.0266 12.045 32.5148 10.823 32.5148 9.36086C32.5148 8.42549 32.7376 7.57361 33.1833 6.80533C33.629 6.03725 34.2452 5.4332 35.0321 4.99324C35.8189 4.55345 36.6919 4.33347 37.6509 4.33347C39.0954 4.33347 40.3003 4.81988 41.2655 5.79243C42.2305 6.76512 42.7131 7.98553 42.7131 9.4538C42.7131 9.64938 42.7068 9.83019 42.6942 9.99615C42.6797 10.1871 42.5161 10.3273 42.3246 10.3273H36.0112ZM38.9787 7.19564C38.5914 6.88593 38.1364 6.73101 37.614 6.73101C37.0976 6.73101 36.6458 6.88753 36.2585 7.20028C35.992 7.41561 35.7837 7.68444 35.6336 8.00681C35.5267 8.23645 35.7132 8.47804 35.9665 8.47804H39.2795C39.5357 8.47804 39.7224 8.23133 39.6113 8.00042C39.4555 7.67669 39.2446 7.40842 38.9787 7.19564ZM28.7943 1.16925C28.7943 0.955775 28.9674 0.782715 29.1808 0.782715H31.1635C31.3769 0.782715 31.55 0.955774 31.55 1.16925V13.8943C31.55 14.1077 31.3769 14.2808 31.1635 14.2808H29.1808C28.9674 14.2808 28.7943 14.1077 28.7943 13.8943V1.16925ZM24.515 1.16925C24.515 0.955775 24.6881 0.782715 24.9015 0.782715H26.8841C27.0976 0.782715 27.2707 0.955774 27.2707 1.16925V13.8943C27.2707 14.1077 27.0976 14.2808 26.8841 14.2808H24.9015C24.6881 14.2808 24.515 14.1077 24.515 13.8943V1.16925ZM20.9994 13.8499C20.2127 14.2933 19.3345 14.5151 18.3647 14.5151C16.8948 14.5151 15.6674 14.0283 14.6825 13.0543C13.6975 12.0806 13.205 10.871 13.205 9.42559C13.205 7.98032 13.6975 6.77073 14.6825 5.79682C15.6674 4.82307 16.8948 4.33601 18.3647 4.33601C19.3345 4.33601 20.2127 4.55788 20.9994 5.00128C21.7862 5.44484 22.4022 6.05591 22.8474 6.83427C23.2926 7.61281 23.5152 8.47652 23.5152 9.42559C23.5152 10.3747 23.2926 11.2385 22.8474 12.0169C22.4022 12.7954 21.7862 13.4065 20.9994 13.8499ZM20.0389 7.71357C19.5936 7.25459 19.0355 7.02502 18.3647 7.02502C17.6937 7.02502 17.1357 7.25459 16.6906 7.71357C16.2453 8.17267 16.0227 8.74332 16.0227 9.42559C16.0227 10.108 16.2453 10.6786 16.6906 11.1376C17.1357 11.5967 17.6937 11.8262 18.3647 11.8262C19.0355 11.8262 19.5936 11.5967 20.0389 11.1376C20.484 10.6786 20.7067 10.108 20.7067 9.42559C20.7067 8.74332 20.484 8.17267 20.0389 7.71357ZM7.35748 11.6468C8.02712 11.6468 8.64316 11.4954 9.20538 11.1922C9.65651 10.949 10.0413 10.6324 10.3599 10.2423C10.4922 10.0804 10.7239 10.0293 10.9009 10.1406L12.7816 11.3231C12.9658 11.4388 13.019 11.6845 12.8881 11.8581C12.301 12.6363 11.565 13.2579 10.68 13.7231C9.67539 14.2512 8.56787 14.5151 7.35748 14.5151C6.39281 14.5151 5.48343 14.3385 4.62947 13.9855C3.77535 13.6326 3.04425 13.1529 2.43599 12.5467C1.8277 11.9406 1.34846 11.2142 0.998205 10.3673C0.647989 9.52062 0.4729 8.61607 0.4729 7.65368C0.4729 6.69141 0.647989 5.78686 0.998205 4.94003C1.34846 4.09333 1.8277 3.36686 2.43599 2.76067C3.04425 2.1546 3.77535 1.67656 4.62947 1.32651C5.48343 0.97662 6.39281 0.801572 7.35748 0.801572C8.56787 0.801572 9.67539 1.06566 10.68 1.59367C11.565 2.05897 12.301 2.6806 12.888 3.45861C13.019 3.63225 12.9658 3.87791 12.7816 3.99369L10.9008 5.17619C10.7239 5.28743 10.4921 5.23636 10.3599 5.07451C10.0408 4.68389 9.65441 4.36563 9.20075 4.11985C8.63538 3.81374 8.02108 3.66054 7.35748 3.66054C6.25153 3.66054 5.32672 4.04016 4.58336 4.79942C3.83988 5.55868 3.46818 6.51009 3.46818 7.65368C3.46818 8.79727 3.83988 9.74867 4.58336 10.5079C5.32672 11.2672 6.25153 11.6468 7.35748 11.6468Z" />
<path fill-rule="evenodd" clip-rule="evenodd" d="M79.8432 8.30767H83.7162C84.5042 8.30767 85.1431 8.82471 85.1431 9.46251C85.1431 10.1003 84.5042 10.6174 83.7162 10.6174H79.8432C79.0551 10.6174 78.4162 10.1003 78.4162 9.46251C78.4162 8.82471 79.0551 8.30767 79.8432 8.30767Z" fill="#D30D44"/>
</svg>
