<svg width="13" height="14" viewBox="0 0 13 14" fill="none" xmlns="http://www.w3.org/2000/svg">
<path d="M2.73534 0.354492C1.68237 0.354492 0.816528 1.22033 0.816528 2.27327V11.7283C0.816528 12.7813 1.68237 13.6458 2.73531 13.6458H10.861C11.9139 13.6458 12.7785 12.7813 12.7785 11.7283V2.27327C12.7785 1.22033 11.9139 0.354492 10.861 0.354492H2.73534ZM4.13871 3.01327H9.45757C9.82264 3.0147 10.1182 3.31029 10.1197 3.67537C10.1218 4.04247 9.82598 4.3418 9.45888 4.34395C9.45844 4.34395 9.45801 4.34395 9.45757 4.34395H4.13871C3.77161 4.34251 3.47518 4.04378 3.47661 3.67668C3.47661 3.67624 3.47661 3.6758 3.47661 3.67537C3.47805 3.31029 3.77364 3.0147 4.13871 3.01327ZM4.13871 5.67335H9.45757C9.82264 5.67478 10.1182 5.97038 10.1197 6.33545C10.1182 6.70053 9.82264 6.99612 9.45757 6.99755H4.13871C3.77364 6.99612 3.47805 6.70053 3.47661 6.33545C3.47805 5.97038 3.77364 5.67478 4.13871 5.67335ZM5.46811 8.32695H8.7903C9.51661 8.32695 10.1197 8.93132 10.1197 9.65764C10.1197 10.384 9.51665 10.987 8.7903 10.987H5.46811C5.36414 10.9879 5.26145 10.9643 5.16822 10.9182L3.83882 10.2509C3.51079 10.0861 3.37856 9.68646 3.54345 9.35843C3.6076 9.23078 3.71117 9.12721 3.83882 9.06305L5.16822 8.40095C5.26098 8.3531 5.36374 8.32773 5.46811 8.32695Z"/>
</svg>
