<svg width="17" height="18" viewBox="0 0 17 18" fill="none" xmlns="http://www.w3.org/2000/svg">
<path d="M16.7136 11.615C16.1689 13.2155 15.1452 14.6097 13.7811 15.6085C12.4171 16.6073 10.7789 17.1624 9.08864 17.1985H8.91416C7.83931 17.1998 6.77484 16.9883 5.78215 16.5762C4.77262 16.1564 3.85589 15.5415 3.08449 14.7667C2.31308 13.9919 1.70219 13.0724 1.28683 12.0611C0.856176 11.0115 0.649744 9.88345 0.68078 8.74937C0.731623 6.80693 1.46744 4.94498 2.75821 3.49254C4.04898 2.04011 5.81161 1.09068 7.73463 0.812033C7.91505 0.78625 8.09906 0.806969 8.26923 0.872226C8.43939 0.937483 8.59007 1.04512 8.70699 1.18492C8.8239 1.32473 8.90317 1.49208 8.93729 1.67111C8.97141 1.85013 8.95924 2.03491 8.90194 2.20792C8.65359 2.9582 8.50295 3.62008 8.44072 4.23194C8.37073 4.97483 8.45815 5.72413 8.69726 6.43096C8.93638 7.13779 9.32183 7.78627 9.82846 8.33409C10.6427 9.2292 12.1607 10.2883 14.7396 10.2633C15.015 10.262 15.29 10.2443 15.5632 10.2104C15.7435 10.1867 15.9268 10.2094 16.0959 10.2763C16.265 10.3431 16.4143 10.452 16.5297 10.5925C16.645 10.7331 16.7227 10.9007 16.7553 11.0796C16.7879 11.2585 16.7743 11.4428 16.716 11.615H16.7136Z" />
</svg>
