<svg width="15" height="18" viewBox="0 0 15 18" fill="none" xmlns="http://www.w3.org/2000/svg">
<path d="M2.59333 14.6034C1.49433 14.4663 0.643921 13.5288 0.643921 12.3927V2.92418C0.643921 1.69375 1.64138 0.696289 2.87181 0.696289H9.55548C10.6916 0.696289 11.6291 1.5467 11.7661 2.64569H5.65667C3.96484 2.64569 2.59333 4.01721 2.59333 5.70904V14.6034Z" fill="#D30D44"/>
<path fill-rule="evenodd" clip-rule="evenodd" d="M3.42878 15.1776C3.42878 16.408 4.42624 17.4055 5.65667 17.4055H12.3403C13.5708 17.4055 14.5682 16.408 14.5682 15.1776V5.70904C14.5682 4.47861 13.5708 3.48115 12.3403 3.48115H5.65667C4.42624 3.48115 3.42878 4.47861 3.42878 5.70904V15.1776ZM5.85462 11.5852C5.72911 11.4794 5.65667 11.3236 5.65667 11.1594V10.4541C5.65667 10.0253 5.89225 9.62425 6.27962 9.425L7.74532 8.67122V7.81757C7.74532 7.12938 8.29171 6.5445 8.99851 6.5445C9.70531 6.5445 10.2517 7.12938 10.2517 7.81757V8.67122L11.6532 9.39202C12.08 9.61147 12.3403 10.0539 12.3403 10.5278V11.1594C12.3403 11.3236 12.2679 11.4794 12.1424 11.5852C12.0169 11.6911 11.8511 11.7361 11.6893 11.7084L10.2517 11.4619V11.9069L11.0444 12.8242C11.1319 12.9254 11.18 13.0546 11.18 13.1884V13.7851C11.18 13.9688 11.0895 14.1405 10.9381 14.2444C10.7867 14.3483 10.5939 14.3709 10.4226 14.3048L9.59105 13.9841H8.40598L7.57444 14.3048C7.40315 14.3709 7.21029 14.3483 7.05891 14.2444C6.90752 14.1405 6.81704 13.9688 6.81704 13.7851V13.1884C6.81704 13.0546 6.86514 12.9254 6.95258 12.8242L7.74532 11.9069V11.4619L6.30775 11.7084C6.14595 11.7361 5.98014 11.6911 5.85462 11.5852Z" fill="#D30D44"/>
<path d="M5.33236 5.50257H12.6483V15.8068H5.33236V5.50257Z" fill="#D30D44"/>
</svg>
