<svg width="11" height="14" viewBox="0 0 11 14" fill="none" xmlns="http://www.w3.org/2000/svg">
<path d="M5.30959 6.77805C6.11211 6.77805 6.80703 6.49022 7.37483 5.92233C7.94262 5.35454 8.23045 4.65981 8.23045 3.85719C8.23045 3.05486 7.94262 2.36004 7.37473 1.79206C6.80684 1.22435 6.11202 0.936523 5.30959 0.936523C4.50698 0.936523 3.81225 1.22435 3.24446 1.79215C2.67666 2.35994 2.38874 3.05477 2.38874 3.85719C2.38874 4.65981 2.67666 5.35463 3.24455 5.92243C3.81244 6.49013 4.50726 6.77805 5.30959 6.77805Z"/>
<path d="M10.4203 10.2614C10.4039 10.0251 10.3708 9.76737 10.322 9.49518C10.2728 9.22095 10.2095 8.96171 10.1336 8.72476C10.0552 8.47986 9.94864 8.23802 9.81689 8.00625C9.68015 7.7657 9.51953 7.55624 9.3393 7.38387C9.15084 7.20355 8.92009 7.05857 8.65327 6.95282C8.38736 6.84763 8.09269 6.79433 7.77747 6.79433C7.65368 6.79433 7.53396 6.84513 7.30275 6.99566C7.16046 7.08845 6.99401 7.19578 6.80823 7.31448C6.64938 7.4157 6.43417 7.51053 6.16836 7.59639C5.90903 7.68031 5.64572 7.72286 5.38583 7.72286C5.12594 7.72286 4.86272 7.68031 4.60311 7.59639C4.33758 7.51062 4.12238 7.41579 3.96371 7.31457C3.77968 7.19698 3.61315 7.08966 3.46872 6.99556C3.23779 6.84503 3.11798 6.79424 2.99419 6.79424C2.67888 6.79424 2.3843 6.84763 2.11849 6.95291C1.85184 7.05848 1.62101 7.20346 1.43236 7.38396C1.25222 7.55642 1.09152 7.76579 0.954956 8.00625C0.8233 8.23802 0.716717 8.47977 0.63826 8.72486C0.562486 8.9618 0.49911 9.22095 0.449889 9.49518C0.401131 9.767 0.368009 10.0249 0.351633 10.2617C0.335534 10.4937 0.327393 10.7346 0.327393 10.9778C0.327393 11.6108 0.528624 12.1233 0.925442 12.5012C1.31736 12.8742 1.83593 13.0634 2.46655 13.0634H8.30567C8.93629 13.0634 9.45467 12.8743 9.84668 12.5012C10.2436 12.1236 10.4448 11.611 10.4448 10.9777C10.4447 10.7334 10.4365 10.4924 10.4203 10.2614Z" />
</svg>
