<svg width="11" height="10" viewBox="0 0 11 10" fill="none" xmlns="http://www.w3.org/2000/svg">
<path d="M1.25488 4.31309C0.923512 4.31309 0.654883 4.58172 0.654883 4.91309C0.654883 5.24446 0.923512 5.51309 1.25488 5.51309L1.25488 4.31309ZM10.4321 5.33735C10.6664 5.10303 10.6664 4.72314 10.4321 4.48882L6.6137 0.670444C6.37938 0.43613 5.99949 0.43613 5.76517 0.670445C5.53086 0.90476 5.53086 1.28466 5.76517 1.51897L9.15928 4.91309L5.76517 8.3072C5.53086 8.54151 5.53086 8.92141 5.76517 9.15573C5.99949 9.39004 6.37939 9.39004 6.6137 9.15573L10.4321 5.33735ZM1.25488 5.51309L10.0078 5.51309L10.0078 4.31309L1.25488 4.31309L1.25488 5.51309Z" fill="white"/>
</svg>
