<svg width="14" height="14" viewBox="0 0 14 14" fill="none" xmlns="http://www.w3.org/2000/svg">
<path d="M7.0098 0.916205C7.0098 1.31007 6.74723 1.57264 6.35336 1.57264C5.43432 1.57264 4.77788 1.57264 4.25271 1.63828C3.72754 1.63828 3.46497 1.70391 3.2024 1.83521C2.67723 2.09778 2.28336 2.49165 2.08643 2.95119C1.88949 3.27942 1.82386 3.54199 1.82386 4.06716C1.75822 4.59233 1.75822 5.24877 1.75822 6.16781V7.48072C1.75822 8.39976 1.75822 9.0562 1.82386 9.58137C1.88949 10.1065 1.95516 10.3691 2.08643 10.6317C2.349 11.1568 2.74286 11.5507 3.2024 11.7477C3.46497 11.879 3.72757 11.9446 4.25271 12.0102C4.77788 12.0759 5.43432 12.0759 6.35336 12.0759H7.66627C8.58531 12.0759 9.24174 12.0759 9.76691 12.0102C10.2921 11.9446 10.5547 11.8789 10.8172 11.7477C11.3424 11.4851 11.7363 11.0912 11.9332 10.6317C12.1301 10.1722 12.1958 9.58137 12.1958 8.13716C12.1958 7.74329 12.524 7.48072 12.8522 7.48072C13.1804 7.48072 13.5086 7.80895 13.5086 8.13716C13.5086 9.5157 13.5086 10.4347 13.0491 11.2225C12.6553 11.9446 12.0645 12.5354 11.3424 12.9293C10.8829 13.1918 10.3577 13.2575 9.76688 13.3231C9.30738 13.3888 8.58527 13.3888 7.66624 13.3888H6.35336C5.43432 13.3888 4.77788 13.3888 4.18707 13.3231C3.59627 13.2575 3.0711 13.1918 2.6116 12.9293C1.88949 12.5354 1.29869 11.9446 0.904817 11.2225C0.642247 10.763 0.576582 10.2378 0.510947 9.647C0.445312 9.12183 0.445312 8.39973 0.445312 7.48072V6.16781C0.445312 5.24877 0.445312 4.59233 0.510947 4.00153C0.510947 3.34509 0.642247 2.88555 0.904817 2.42605C1.29869 1.70394 1.88949 1.11314 2.6116 0.71927C3.0711 0.4567 3.53063 0.3254 4.12144 0.3254C4.71224 0.259766 5.43432 0.259766 6.35336 0.259766C6.74723 0.259766 7.0098 0.522335 7.0098 0.916205ZM10.2264 0.522335L12.9179 2.88555C13.3117 3.34506 13.5743 3.93586 13.5743 4.52667C13.5743 5.11747 13.3117 5.70827 12.8522 6.10214L10.1608 8.46536C9.96382 8.6623 9.70125 8.72793 9.37301 8.72793C8.71657 8.72793 8.25704 8.20276 8.25704 7.61196V6.82422H7.86317C6.61593 6.82422 5.63125 7.80889 5.63125 9.05614V9.12183C5.63125 9.647 5.17175 10.1065 4.64658 10.1065C4.18707 10.1065 3.72754 9.647 3.72754 9.12183V7.48072C3.72757 4.78927 5.76255 2.62298 8.32271 2.29475V1.37574C8.32271 0.71927 8.84787 0.259766 9.43868 0.259766C9.70125 0.259766 10.0295 0.391066 10.2264 0.522335ZM8.97914 3.54202C6.94416 3.54202 5.30302 5.05187 5.04045 6.95555C5.69689 6.03651 6.74723 5.51137 7.92884 5.51137H8.97914C9.37301 5.51137 9.63558 5.77394 9.63558 6.16781V7.28378L11.9988 5.18314C12.1957 4.9862 12.2614 4.78927 12.2614 4.5267C12.2614 4.26413 12.1957 4.06719 11.9988 3.93589L9.63558 1.76961V2.88558C9.63561 3.27942 9.37301 3.54202 8.97914 3.54202Z" fill="#D30D44"/>
</svg>
