<svg width="15" height="17" viewBox="0 0 15 17" fill="none" xmlns="http://www.w3.org/2000/svg">
<path d="M7.65957 2.24196L10.0224 5.93973H12.2657L9.07669 0.948882C9.00953 0.842021 8.92131 0.749959 8.81741 0.678309C8.71351 0.60666 8.5961 0.556924 8.47235 0.532136C8.3512 0.507691 8.22635 0.508183 8.1054 0.533581C7.98445 0.55898 7.86995 0.608753 7.76887 0.679864C7.73025 0.706744 7.69371 0.736498 7.65957 0.768873C7.62543 0.736498 7.58889 0.706744 7.55028 0.679864C7.44919 0.608774 7.33468 0.559013 7.21374 0.533616C7.09279 0.508218 6.96794 0.507714 6.8468 0.532136C6.72304 0.556924 6.60564 0.60666 6.50173 0.678309C6.39783 0.749959 6.30961 0.842021 6.24245 0.948882L3.0534 5.93973H5.29673L7.65957 2.24196Z" />
<path d="M7.96555 13.3837H10.0967L10.2885 11.2629H7.96555V13.3837Z" />
<path d="M5.46979 16.1194H7.35359V13.9957H5.27773L5.46979 16.1194Z" />
<path d="M7.96555 16.1194H9.84935L10.0414 13.9957H7.96555V16.1194Z" />
<path d="M10.7112 13.3837H13.2533L13.6298 11.2629H10.903L10.7112 13.3837Z" />
<path d="M4.41618 11.2629H1.68934L2.06582 13.3837H4.60797L4.41618 11.2629Z" />
<path d="M2.17444 13.9957L2.32052 14.8185C2.32085 14.8207 2.32128 14.8228 2.32171 14.8249C2.47146 15.575 3.11726 16.1194 3.85758 16.1194H4.85535L4.66332 13.9957H2.17444Z" />
<path d="M10.4638 16.1194H11.4616C12.2017 16.1194 12.8477 15.575 12.9976 14.8249C12.998 14.8228 12.9984 14.8207 12.9988 14.8185L13.1449 13.9957H10.6558L10.4638 16.1194Z" />
<path d="M5.22241 13.3837H7.35359V11.2629H5.03065L5.22241 13.3837Z" />
<path d="M14.0852 6.55169H1.23398C0.990613 6.55197 0.757291 6.64877 0.585203 6.82085C0.413115 6.99294 0.316315 7.22626 0.31604 7.46963V8.22121C0.316315 8.46458 0.413115 8.6979 0.585203 8.86999C0.757291 9.04208 0.990613 9.13888 1.23398 9.13915H1.31234L1.58069 10.6509H4.36086L4.22418 9.13915H4.83858L4.9753 10.6509H7.35359V9.13915H7.96555V10.6509H10.3438L10.4806 9.13915H11.095L10.9583 10.6509H13.7385L14.0068 9.13915H14.0852C14.3285 9.13888 14.5619 9.04208 14.7339 8.86999C14.906 8.6979 15.0028 8.46458 15.0031 8.22121V7.46963C15.0028 7.22626 14.906 6.99294 14.7339 6.82085C14.5619 6.64877 14.3285 6.55197 14.0852 6.55169Z" />
</svg>
