<svg width="16" height="16" viewBox="0 0 16 16" fill="none" xmlns="http://www.w3.org/2000/svg">
<path d="M6.17689 1.91386C6.62674 0.529364 8.58542 0.529367 9.03527 1.91386L9.76763 4.16781C9.9688 4.78698 10.5458 5.20618 11.1968 5.20618H13.5668C15.0225 5.20618 15.6278 7.069 14.4501 7.92467L12.5327 9.31769C12.006 9.70035 11.7856 10.3786 11.9868 10.9978L12.7192 13.2518C13.169 14.6363 11.5844 15.7875 10.4067 14.9319L8.48937 13.5389C7.96268 13.1562 7.24948 13.1562 6.72279 13.5389L4.80546 14.9319C3.62774 15.7875 2.04313 14.6362 2.49298 13.2518L3.22534 10.9978C3.42651 10.3786 3.20612 9.70035 2.67943 9.31769L0.762102 7.92466C-0.415616 7.069 0.189653 5.20618 1.64539 5.20618H4.01534C4.66637 5.20618 5.24336 4.78698 5.44453 4.16781L6.17689 1.91386Z" fill="#D30D44"/>
</svg>
