<svg width="4" height="18" viewBox="0 0 4 18" fill="none" xmlns="http://www.w3.org/2000/svg">
<path d="M3.76558 2.25486C3.76558 3.13775 3.04986 3.85347 2.16697 3.85347C1.28408 3.85347 0.568359 3.13775 0.568359 2.25486C0.568359 1.37197 1.28408 0.65625 2.16697 0.65625C3.04986 0.65625 3.76558 1.37197 3.76558 2.25486Z" />
<path d="M3.76558 9.00012C3.76558 9.88301 3.04986 10.5987 2.16697 10.5987C1.28408 10.5987 0.568359 9.88301 0.568359 9.00012C0.568359 8.11723 1.28408 7.40151 2.16697 7.40151C3.04986 7.40151 3.76558 8.11723 3.76558 9.00012Z" />
<path d="M3.76558 15.7454C3.76558 16.6283 3.04986 17.344 2.16697 17.344C1.28408 17.344 0.568359 16.6283 0.568359 15.7454C0.568359 14.8625 1.28408 14.1468 2.16697 14.1468C3.04986 14.1468 3.76558 14.8625 3.76558 15.7454Z"/>
</svg>
