<svg width="12" height="12" viewBox="0 0 12 12" fill="none" xmlns="http://www.w3.org/2000/svg">
<path d="M2.45335 0.416992C1.53492 0.416992 0.778442 1.1735 0.778442 2.0919C0.778442 3.01032 1.53495 3.7668 2.45335 3.7668C3.37174 3.7668 4.12825 3.01032 4.12825 2.0919C4.12825 1.17347 3.37177 0.416992 2.45335 0.416992ZM5.80098 1.53468C5.49393 1.53588 5.24546 1.78481 5.24486 2.0919C5.24366 2.40024 5.49264 2.65118 5.80098 2.65239H11.3851C11.6934 2.65419 11.9448 2.40571 11.9467 2.09737C11.9467 2.09553 11.9467 2.09373 11.9467 2.0919C11.946 1.78356 11.6956 1.53407 11.3873 1.53468C11.3865 1.53468 11.3858 1.53468 11.3851 1.53468H5.80098ZM2.45335 4.32509C1.53492 4.32509 0.778442 5.0816 0.778442 6C0.778442 6.91842 1.53495 7.6749 2.45335 7.6749C3.37174 7.6749 4.12825 6.91842 4.12825 6C4.12825 5.0816 3.37177 4.32509 2.45335 4.32509ZM5.80098 5.4417C5.49393 5.44291 5.24546 5.69184 5.24486 5.99892C5.24366 6.30726 5.49264 6.55821 5.80098 6.55942H11.3851C11.6934 6.56122 11.9448 6.31273 11.9467 6.00439C11.9467 6.00256 11.9467 6.00076 11.9467 5.99892C11.946 5.69058 11.6956 5.4411 11.3873 5.4417C11.3865 5.4417 11.3858 5.4417 11.3851 5.4417H5.80098ZM2.45335 8.23319C1.53492 8.23319 0.778442 8.9897 0.778442 9.9081C0.778442 10.8265 1.53495 11.583 2.45335 11.583C3.37174 11.583 4.12825 10.8265 4.12825 9.9081C4.12825 8.9897 3.37177 8.23319 2.45335 8.23319ZM5.80098 9.34871C5.49264 9.34991 5.24366 9.60083 5.24486 9.90917C5.24546 10.2162 5.49393 10.4652 5.80098 10.4664H11.3851C11.6934 10.4682 11.9448 10.2197 11.9467 9.91137C11.9467 9.91064 11.9467 9.9099 11.9467 9.90917C11.9479 9.60083 11.6989 9.34988 11.3905 9.34868C11.3887 9.34868 11.3869 9.34868 11.3851 9.34868H5.80098V9.34871Z"/>
</svg>
