
<svg width="11" height="15" viewBox="0 0 11 15" fill="none" xmlns="http://www.w3.org/2000/svg">
<path d="M10.9453 6.28418C10.9453 3.29299 8.48826 0.835938 5.49707 0.835938C2.50588 0.835938 0.0488281 3.29299 0.0488281 6.28418C0.0488281 7.83319 0.689798 9.16854 1.70467 10.1834L0.422727 12.587C0.315899 12.8007 0.369313 13.0144 0.476141 13.1746C0.636384 13.3348 0.85004 13.3883 1.0637 13.3348L2.13198 13.0144L2.34564 13.9758C2.39905 14.1895 2.55929 14.3497 2.77295 14.4031C2.98661 14.4565 3.20026 14.3497 3.30709 14.1361L4.64244 11.679C5.23 11.7858 5.81755 11.7858 6.40511 11.679L7.74046 14.1361C7.84729 14.3497 8.06095 14.4565 8.2746 14.4031C8.48826 14.3497 8.70192 14.1895 8.70192 13.9758L8.91557 13.0144L9.93044 13.3348C10.1441 13.3883 10.3578 13.3348 10.518 13.1746C10.6782 13.0144 10.6782 12.7473 10.5714 12.587L9.28947 10.1834C10.3043 9.16854 10.9453 7.77977 10.9453 6.28418ZM7.52681 5.96369L5.12317 7.61953L5.01634 7.67295C4.90951 7.72636 4.80269 7.77977 4.64244 7.77977C4.42879 7.77977 4.26854 7.67295 4.16172 7.5127L3.7344 6.92515L3.30709 6.39101C3.09343 6.07052 3.20026 5.69662 3.46733 5.48297C3.7344 5.26931 4.16172 5.32272 4.32196 5.64321L4.80269 6.28418L6.83242 4.89541C7.09949 4.68176 7.52681 4.78858 7.68705 5.05565C7.90071 5.37614 7.79388 5.75004 7.52681 5.96369Z" fill="#61D9EA"/>
</svg>
